<svg width="784" height="811" viewBox="0 0 784 811" fill="none" xmlns="http://www.w3.org/2000/svg">
<g opacity="0.9">
<path d="M392 811C608.496 811 784 706.498 784 577.587C784 448.677 608.496 344.175 392 344.175C175.504 344.175 0 448.677 0 577.587C0 706.498 175.504 811 392 811Z" fill="#F5F5F5"/>
<path d="M393.664 796.387C420.962 796.387 443.092 783.209 443.092 766.952C443.092 750.696 420.962 737.518 393.664 737.518C366.365 737.518 344.235 750.696 344.235 766.952C344.235 783.209 366.365 796.387 393.664 796.387Z" fill="#E0E0E0"/>
<path d="M132.679 624.599C159.978 624.599 182.108 611.421 182.108 595.165C182.108 578.909 159.978 565.73 132.679 565.73C105.38 565.73 83.2503 578.909 83.2503 595.165C83.2503 611.421 105.38 624.599 132.679 624.599Z" fill="#E0E0E0"/>
<path d="M588.84 719.316C608.808 719.316 624.994 709.677 624.994 697.787C624.994 685.896 608.808 676.257 588.84 676.257C568.873 676.257 552.686 685.896 552.686 697.787C552.686 709.677 568.873 719.316 588.84 719.316Z" fill="#E0E0E0"/>
<path d="M222.018 547.893C241.985 547.893 258.172 538.254 258.172 526.363C258.172 514.472 241.985 504.833 222.018 504.833C202.051 504.833 185.864 514.472 185.864 526.363C185.864 538.254 202.051 547.893 222.018 547.893Z" fill="#E0E0E0"/>
<path d="M538.554 616.677L404.16 538.255C399.9 535.767 395.067 534.457 390.148 534.457C385.228 534.457 380.395 535.767 376.135 538.255L245.446 614.684C244.456 615.262 243.634 616.094 243.062 617.095C242.491 618.096 242.19 619.231 242.19 620.387C242.19 621.543 242.491 622.678 243.062 623.679C243.634 624.68 244.456 625.512 245.446 626.09L379.84 704.512C384.1 707 388.933 708.31 393.852 708.31C398.772 708.31 403.605 707 407.865 704.512L538.554 628.066C539.544 627.49 540.367 626.661 540.939 625.661C541.511 624.661 541.812 623.527 541.812 622.372C541.812 621.217 541.511 620.082 540.939 619.083C540.367 618.083 539.544 617.253 538.554 616.677Z" fill="#E0E0E0"/>
<path d="M201.626 440.851V526.38C201.626 529.414 203.615 532.465 207.611 534.788C215.569 539.451 228.501 539.451 236.459 534.788C240.438 532.465 242.445 529.414 242.445 526.38V440.851H201.626Z" fill="#303E44"/>
<path d="M236.39 449.258C228.432 453.921 215.501 453.921 207.543 449.258C199.585 444.595 199.567 437.124 207.543 432.426C215.518 427.728 228.432 427.78 236.39 432.426C244.348 437.072 244.365 444.612 236.39 449.258Z" fill="#435760"/>
<path d="M217.164 2.8009V439.637C217.204 440.061 217.353 440.466 217.597 440.813C217.841 441.16 218.171 441.436 218.553 441.613C219.614 442.167 220.79 442.455 221.984 442.455C223.177 442.455 224.353 442.167 225.414 441.613C225.799 441.437 226.131 441.162 226.378 440.815C226.624 440.468 226.777 440.062 226.82 439.637V2.8009H217.164Z" fill="#303E44"/>
<path d="M225.345 4.77708C224.285 5.33042 223.108 5.61916 221.915 5.61916C220.721 5.61916 219.545 5.33042 218.485 4.77708C218.079 4.63636 217.727 4.37111 217.478 4.01836C217.229 3.66562 217.095 3.24301 217.095 2.80958C217.095 2.37615 217.229 1.95354 217.478 1.6008C217.727 1.24806 218.079 0.982801 218.485 0.842086C219.545 0.288741 220.721 0 221.915 0C223.108 0 224.285 0.288741 225.345 0.842086C225.751 0.982801 226.103 1.24806 226.352 1.6008C226.601 1.95354 226.735 2.37615 226.735 2.80958C226.735 3.24301 226.601 3.66562 226.352 4.01836C226.103 4.37111 225.751 4.63636 225.345 4.77708Z" fill="#435760"/>
<path d="M174.493 178.94V251.954C174.501 263.085 177.929 273.94 184.303 283.017C191.134 292.788 196.804 303.336 201.197 314.445C201.608 315.484 202.362 316.346 203.332 316.885C204.301 317.425 205.426 317.608 206.514 317.403C207.602 317.199 208.586 316.62 209.299 315.764C210.012 314.909 210.409 313.83 210.424 312.712V264.521C210.419 257.046 208.574 249.689 205.056 243.113L201.437 236.3L174.493 178.94Z" fill="#012C61"/>
<path d="M217.164 47.4206C217.164 47.4206 203.907 87.2906 193.153 114.073C182.399 140.855 166.072 171.278 179.535 197.02C192.999 222.762 201.54 236.3 201.54 236.3C201.54 236.3 196.772 228.448 203.255 203.018C209.738 177.587 217.164 164.985 217.164 164.985V47.4206Z" fill="#012C61"/>
<path opacity="0.3" d="M217.164 47.4206C217.164 47.4206 203.907 87.2906 193.153 114.073C182.399 140.855 166.072 171.278 179.535 197.02C192.999 222.762 201.54 236.3 201.54 236.3C201.54 236.3 196.772 228.448 203.255 203.018C209.738 177.587 217.164 164.985 217.164 164.985V47.4206Z" fill="black"/>
<path d="M210.424 264.487C210.448 276.794 208.119 288.99 203.564 300.404C201.523 305.501 198.916 311.724 195.606 319.195C183.36 346.792 181.765 351.854 181.765 351.854V428.214C186.27 423.297 189.912 417.64 192.536 411.486C194.714 405.817 201.282 390.944 205.845 380.716C208.918 373.817 210.508 366.337 210.51 358.77V264.487H210.424Z" fill="#012C61"/>
<path opacity="0.3" d="M210.424 264.487C210.448 276.794 208.119 288.99 203.564 300.404C201.523 305.501 198.916 311.724 195.606 319.195C183.36 346.792 181.765 351.854 181.765 351.854V428.214C186.27 423.297 189.912 417.64 192.536 411.486C194.714 405.817 201.282 390.944 205.845 380.716C208.918 373.817 210.508 366.337 210.51 358.77V264.487H210.424Z" fill="black"/>
<path d="M222.035 51.6676C220.51 51.6932 219.004 51.3232 217.662 50.5929C217.077 50.3206 216.577 49.8929 216.214 49.3555C215.852 48.8182 215.641 48.1913 215.603 47.542C215.603 47.3121 215.694 47.0916 215.855 46.9291C216.015 46.7665 216.234 46.6752 216.461 46.6752C216.687 46.6797 216.903 46.7724 217.062 46.934C217.222 47.0956 217.314 47.3135 217.319 47.542C217.37 47.8839 217.508 48.2068 217.718 48.4798C217.928 48.7529 218.204 48.9671 218.519 49.1021C219.61 49.645 220.81 49.9274 222.026 49.9274C223.243 49.9274 224.443 49.645 225.534 49.1021C225.849 48.9671 226.125 48.7529 226.335 48.4798C226.545 48.2068 226.682 47.8839 226.734 47.542C226.734 47.3121 226.825 47.0916 226.986 46.9291C227.146 46.7665 227.364 46.6752 227.592 46.6752C227.819 46.6752 228.037 46.7665 228.198 46.9291C228.359 47.0916 228.449 47.3121 228.449 47.542C228.409 48.1903 228.196 48.8156 227.834 49.3523C227.472 49.8891 226.974 50.3176 226.391 50.5929C225.054 51.321 223.554 51.691 222.035 51.6676Z" fill="#012C61"/>
<path d="M222.018 166.181C220.499 166.205 218.999 165.835 217.662 165.106C217.077 164.834 216.577 164.406 216.214 163.869C215.852 163.332 215.641 162.705 215.603 162.055C215.603 161.826 215.694 161.605 215.855 161.443C216.015 161.28 216.234 161.189 216.461 161.189C216.688 161.189 216.907 161.28 217.067 161.443C217.228 161.605 217.319 161.826 217.319 162.055C217.319 162.593 217.747 163.148 218.519 163.598C219.609 164.145 220.81 164.43 222.026 164.43C223.243 164.43 224.444 164.145 225.534 163.598C226.306 163.148 226.734 162.593 226.734 162.055C226.734 161.826 226.825 161.605 226.986 161.443C227.146 161.28 227.364 161.189 227.592 161.189C227.819 161.189 228.037 161.28 228.198 161.443C228.359 161.605 228.449 161.826 228.449 162.055C228.409 162.704 228.196 163.329 227.834 163.866C227.472 164.403 226.974 164.831 226.391 165.106C225.048 165.837 223.543 166.207 222.018 166.181Z" fill="#012C61"/>
<path d="M568.431 612.534V698.064C568.431 701.115 570.42 704.166 574.399 706.489C582.375 711.134 595.289 711.134 603.247 706.489C607.243 704.166 609.233 701.115 609.233 698.064V612.534H568.431Z" fill="#303E44"/>
<path d="M603.264 620.959C595.306 625.605 582.392 625.605 574.416 620.959C566.441 616.313 566.441 608.825 574.416 604.127C582.392 599.429 595.306 599.481 603.264 604.127C611.222 608.773 611.239 616.313 603.264 620.959Z" fill="#435760"/>
<path d="M584.09 174.502V611.338C584.13 611.762 584.279 612.167 584.523 612.514C584.766 612.861 585.096 613.137 585.479 613.314C586.528 613.853 587.689 614.134 588.866 614.134C590.043 614.134 591.204 613.853 592.253 613.314C592.64 613.141 592.975 612.866 593.222 612.519C593.469 612.172 593.62 611.764 593.66 611.338V174.502H584.09Z" fill="#303E44"/>
<path d="M588.84 177.293C591.483 177.293 593.625 176.043 593.625 174.502C593.625 172.96 591.483 171.711 588.84 171.711C586.198 171.711 584.055 172.96 584.055 174.502C584.055 176.043 586.198 177.293 588.84 177.293Z" fill="#435760"/>
<path d="M541.367 350.623V423.655C541.369 434.782 544.798 445.632 551.177 454.701C558.01 464.476 563.681 475.031 568.071 486.146C568.482 487.185 569.236 488.047 570.206 488.586C571.175 489.126 572.3 489.309 573.388 489.104C574.476 488.9 575.46 488.321 576.173 487.465C576.886 486.61 577.283 485.531 577.298 484.413V436.222C577.294 428.764 575.467 421.422 571.981 414.848L568.362 408.036L541.367 350.623Z" fill="#012C61"/>
<path d="M584.09 219.122C584.09 219.122 570.832 258.992 559.993 285.774C549.153 312.556 532.911 342.978 546.392 368.703C559.873 394.428 568.397 408.001 568.397 408.001C568.397 408.001 563.629 400.149 570.112 374.718C576.595 349.288 584.09 336.686 584.09 336.686V219.122Z" fill="#012C61"/>
<path opacity="0.3" d="M584.09 219.122C584.09 219.122 570.832 258.992 559.993 285.774C549.153 312.556 532.911 342.978 546.392 368.703C559.873 394.428 568.397 408.001 568.397 408.001C568.397 408.001 563.629 400.149 570.112 374.718C576.595 349.288 584.09 336.686 584.09 336.686V219.122Z" fill="black"/>
<path d="M577.229 436.188C577.253 448.495 574.923 460.691 570.369 472.105C568.311 477.202 565.704 483.425 562.394 490.896C550.148 518.493 548.553 523.555 548.553 523.555V599.828C553.069 594.923 556.718 589.27 559.341 583.117C561.502 577.431 568.071 562.575 572.633 552.348C575.673 545.465 577.24 538.009 577.229 530.471V436.188Z" fill="#012C61"/>
<path opacity="0.3" d="M577.229 436.188C577.253 448.495 574.923 460.691 570.369 472.105C568.311 477.202 565.704 483.425 562.394 490.896C550.148 518.493 548.553 523.555 548.553 523.555V599.828C553.069 594.923 556.718 589.27 559.341 583.117C561.502 577.431 568.071 562.575 572.633 552.348C575.673 545.465 577.24 538.009 577.229 530.471V436.188Z" fill="black"/>
<path d="M588.909 223.386C587.384 223.409 585.879 223.039 584.536 222.311C583.953 222.036 583.455 221.607 583.093 221.071C582.731 220.534 582.518 219.909 582.477 219.26C582.477 219.03 582.568 218.81 582.729 218.647C582.889 218.485 583.108 218.393 583.335 218.393C583.562 218.393 583.781 218.485 583.941 218.647C584.102 218.81 584.193 219.03 584.193 219.26C584.247 219.599 584.386 219.918 584.596 220.188C584.806 220.458 585.08 220.67 585.393 220.803C586.483 221.35 587.684 221.634 588.9 221.634C590.117 221.634 591.318 221.35 592.408 220.803C592.724 220.674 593 220.464 593.211 220.193C593.422 219.922 593.558 219.601 593.608 219.26C593.608 219.03 593.699 218.81 593.859 218.647C594.02 218.485 594.238 218.393 594.466 218.393C594.693 218.393 594.911 218.485 595.072 218.647C595.233 218.81 595.323 219.03 595.323 219.26C595.286 219.91 595.075 220.536 594.712 221.074C594.35 221.611 593.85 222.039 593.265 222.311C591.928 223.039 590.428 223.409 588.909 223.386Z" fill="#012C61"/>
<path d="M588.909 337.795C587.384 337.827 585.876 337.457 584.536 336.721C583.955 336.448 583.457 336.023 583.095 335.489C582.733 334.955 582.52 334.333 582.477 333.687C582.477 333.457 582.568 333.237 582.729 333.074C582.889 332.912 583.108 332.82 583.335 332.82C583.562 332.82 583.781 332.912 583.941 333.074C584.102 333.237 584.193 333.457 584.193 333.687C584.193 334.224 584.638 334.779 585.393 335.23C586.483 335.777 587.684 336.061 588.9 336.061C590.117 336.061 591.318 335.777 592.408 335.23C593.18 334.779 593.608 334.224 593.608 333.687C593.608 333.457 593.699 333.237 593.859 333.074C594.02 332.912 594.238 332.82 594.466 332.82C594.693 332.82 594.911 332.912 595.072 333.074C595.233 333.237 595.323 333.457 595.323 333.687C595.285 334.334 595.073 334.958 594.711 335.492C594.348 336.027 593.848 336.451 593.265 336.721C591.931 337.457 590.429 337.827 588.909 337.795Z" fill="#012C61"/>
<path d="M287.637 118.32C286.17 117.115 284.964 115.618 284.097 113.92C283.229 112.223 282.718 110.363 282.595 108.456C282.217 102.84 281.737 95.0566 281.737 93.2711C281.737 90.4282 281.737 84.0663 277.724 85.8691C273.711 87.672 272.39 97.2061 272.75 102.684C272.75 102.684 252.495 80.8074 250.094 78.6405C247.693 76.4737 244.142 76.023 243.131 78.6405C242.119 81.2581 244.949 86.0252 254.587 98.4195C254.587 98.4195 249.236 98.0555 248.413 104.487C248.413 104.487 243.062 106.22 245.189 112.565C245.189 112.565 239.254 115.373 243.885 122.081C248.516 128.79 273.659 139.642 273.659 139.642L287.637 118.32Z" fill="#FFBBBA"/>
<path d="M288.546 116.656C288.546 116.656 273.556 134.753 270.109 142.935L318.028 177.501C321.677 180.136 325.807 182.016 330.178 183.03C334.549 184.045 339.076 184.174 343.497 183.412L400.575 173.652L419.956 134.424H413.319C409.864 134.423 406.418 134.76 403.028 135.429L337.855 148.43L288.546 116.656Z" fill="#303E44"/>
<path d="M417.726 559.126H425.204C425.204 559.126 428.926 561.293 428.634 567.793C428.343 574.294 429.423 583.672 429.56 587.763C429.698 591.854 424.175 595.615 415.84 594.887C407.504 594.159 399.889 593.466 394.092 596.621C388.295 599.776 374.129 608.218 361.128 599.55C348.128 590.883 353.788 584.608 355.383 584.694C356.978 584.781 379.514 578.645 386.066 573.687C392.617 568.729 403.097 559.628 403.097 559.628L417.726 559.126Z" fill="#2C2C2C"/>
<path d="M403.062 544.235V564.725C403.062 564.725 405.652 568.816 414.279 567.724C422.906 566.632 425.118 562.645 425.118 562.645V544.235H403.062Z" fill="#FFBBBA"/>
<path d="M493.19 588.439C493.19 588.439 502.983 587.347 503.806 593.431C504.63 599.516 506.259 613.193 503.532 616.625C500.805 620.057 493.242 626.818 491.235 630.285C489.228 633.752 479.229 650.861 461.77 652.369C444.31 653.878 440.52 639.282 446.334 634.359C452.148 629.436 467.464 618.965 470.894 609.241C473.162 603.03 475.986 597.042 479.332 591.351L493.19 588.439Z" fill="#2C2C2C"/>
<path d="M478.475 578.385L479.658 597.106C479.658 597.106 487.445 606.467 500.239 595.546C500.708 595.152 501.078 594.651 501.32 594.085C501.561 593.518 501.667 592.903 501.628 592.287L500.565 575.282L478.475 578.385Z" fill="#FFBBBA"/>
<path d="M394.041 293.158L391.503 434.87L396.425 554.133C396.425 554.133 412.735 562.471 434.448 554.133L441.737 436.846L450.93 302.19L394.041 293.158Z" fill="#303E44"/>
<path d="M438.565 366.45L441.686 436.846L446.488 366.45H438.565Z" fill="#2C2C2C"/>
<path d="M446.059 372.846L448.924 330.861L417.435 330.22C416.131 328.521 419.441 352.374 446.059 372.846Z" fill="#2C2C2C"/>
<path d="M404.915 309.713C404.915 309.713 412.289 344.105 442.938 357.696L450.313 462.814C450.409 464.234 450.592 465.646 450.862 467.043L473.741 585.076C473.741 585.076 485.97 596.188 507.734 585.076L506.911 485.696C506.813 473.537 504.709 461.48 500.685 450.021L498.335 309.713H404.915Z" fill="#303E44"/>
<path d="M412.169 295.464C412.169 295.464 420.745 321.917 464.943 312.608V164.24H412.169V295.464Z" fill="#F0F0F0"/>
<path d="M416.423 62.5192C416.423 62.5192 398.723 69.7132 408.173 97.4661L416.423 62.5192Z" fill="#2C2C2C"/>
<path d="M427.211 162.801L429.629 175.455L435.46 177.501L449.713 166.701L427.211 162.801Z" fill="#435760"/>
<path d="M466.332 116.656V145.379C466.332 145.379 448.718 169.96 434.448 169.96V133.245L466.332 116.656Z" fill="#FFBBBA"/>
<path d="M434.448 143.005C445.151 139.538 456.213 132.344 459.677 122.966C460.077 121.865 460.415 120.742 460.689 119.603L434.448 133.245V143.005Z" fill="#F59696"/>
<path d="M434.448 169.891L434.534 135.412C434.534 135.412 428.994 133.973 426.576 135.759C424.158 137.544 411.14 174.311 411.14 174.311C411.14 174.311 424.226 165.904 426.576 165.314C428.926 164.725 434.534 171.503 434.534 171.503L434.448 169.891Z" fill="#E0E0E0"/>
<path d="M428.892 136.088C428.892 136.088 415.171 162.593 415.171 184.4V330.619C415.171 330.619 398.02 330.896 388.861 318.12V185.249C388.861 173.115 395.344 143.317 419.922 134.493L428.892 136.088Z" fill="#435760"/>
<path d="M422.357 134.857L405.721 154.307C405.259 154.839 404.952 155.49 404.834 156.187C404.716 156.885 404.791 157.602 405.052 158.259L409.648 170.064L401.81 183.291C401.357 184.068 401.078 184.938 400.995 185.837C400.912 186.735 401.027 187.642 401.33 188.491L415.239 226.367V184.4C415.239 162.593 428.96 136.088 428.96 136.088L422.357 134.857Z" fill="#303E44"/>
<path d="M437.141 63.3513C427.811 63.3513 410.111 67.2516 408.602 88.9027C407.093 110.554 408.019 137.44 425.942 138.983C438.393 140.04 461.067 130.853 466.332 116.656C471.597 102.459 471.014 63.3513 437.141 63.3513Z" fill="#FFBBBA"/>
<path d="M464.034 105.96C464.034 105.96 458.888 102.649 460.483 91.4856C462.078 80.322 457.053 76.0577 452.731 76.1963C448.409 76.335 422.597 82.1768 412.993 71.3426C403.388 60.5084 406.87 50.0382 418.721 50.0382C425.942 50.0382 432.871 55.4293 443.778 55.6373C454.686 55.8453 471.769 54.1292 472.935 72.0533C472.935 72.0533 483.345 69.1758 480.035 89.2668C476.725 109.358 472.197 122.966 466.212 127.247V111.871L464.034 105.96Z" fill="#2C2C2C"/>
<path d="M464.034 105.96C464.034 105.96 466.297 95.6806 473.912 95.6806C481.527 95.6806 481.373 103.603 480.413 108.89C479.452 114.177 475.645 119.291 470.585 119.291C469.145 119.286 467.741 118.83 466.568 117.986C465.394 117.141 464.509 115.95 464.034 114.576V105.96Z" fill="#FFBBBA"/>
<path d="M472.026 72.7987L479.778 67.9277C479.778 67.9277 475.902 64.634 473.638 67.0262C472.966 67.8096 472.473 68.733 472.195 69.7307C471.916 70.7284 471.859 71.7759 472.026 72.7987Z" fill="#2C2C2C"/>
<path d="M427.554 100.534V116.101L418.532 113.293L427.554 100.534Z" fill="#F59696"/>
<path d="M440.726 103.221C440.726 103.849 440.542 104.462 440.197 104.984C439.852 105.505 439.362 105.912 438.788 106.152C438.215 106.392 437.584 106.455 436.975 106.333C436.366 106.21 435.807 105.908 435.368 105.464C434.929 105.021 434.63 104.456 434.509 103.84C434.388 103.225 434.45 102.587 434.687 102.007C434.925 101.428 435.327 100.932 435.843 100.584C436.359 100.235 436.966 100.049 437.587 100.049C438.419 100.049 439.218 100.383 439.806 100.978C440.395 101.573 440.726 102.38 440.726 103.221Z" fill="#2C2C2C"/>
<path d="M420.076 101.002C420.076 101.63 419.892 102.243 419.547 102.765C419.202 103.287 418.712 103.693 418.138 103.933C417.565 104.173 416.934 104.236 416.325 104.114C415.716 103.991 415.157 103.689 414.718 103.246C414.279 102.802 413.98 102.237 413.859 101.621C413.738 101.006 413.8 100.368 414.038 99.7885C414.275 99.2088 414.677 98.7134 415.194 98.3648C415.71 98.0162 416.317 97.8302 416.937 97.8302C417.77 97.8302 418.568 98.1644 419.157 98.7593C419.745 99.3542 420.076 100.161 420.076 101.002Z" fill="#2C2C2C"/>
<path d="M413.13 94.3979L419.253 90.7229C419.253 90.7229 416.903 88.244 414.553 89.7348C412.204 91.2256 413.13 94.3979 413.13 94.3979Z" fill="#2C2C2C"/>
<path d="M439.216 93.3751L444.756 97.9168C444.756 97.9168 446.231 94.8312 444.053 93.1151C441.875 91.399 439.216 93.3751 439.216 93.3751Z" fill="#2C2C2C"/>
<path d="M423.3 122.411C426.292 122.621 429.268 121.816 431.756 120.123C431.756 120.123 432.339 124.612 428.6 125.479C424.861 126.346 423.3 122.411 423.3 122.411Z" fill="#F59696"/>
<path d="M434.448 169.891C434.448 169.891 456.539 158.762 466.332 145.31V138.185H466.521C467.937 138.623 469.246 139.359 470.36 140.345C471.475 141.331 472.37 142.545 472.986 143.906L477.514 153.873L457.568 187.382C457.568 187.382 446.831 168.313 443.041 168.539C440.03 168.971 437.124 169.958 434.466 171.451L434.448 169.891Z" fill="#E0E0E0"/>
<path d="M475.542 149.592L449.61 194.437C449.113 195.294 448.853 196.269 448.855 197.262V336.235C448.855 336.235 477.446 348.976 500.548 329.787V188.283L503.978 169.371C503.978 169.371 484.769 153.891 475.542 149.592Z" fill="#435760"/>
<path d="M481.768 152.088L474.341 146.888L474.427 147.061C474.778 147.826 474.94 148.666 474.898 149.509C474.856 150.352 474.612 151.171 474.187 151.897L449.61 194.437C449.113 195.294 448.853 196.269 448.855 197.262V240.495L467.721 209.969C468.204 209.197 468.478 208.309 468.514 207.396C468.55 206.484 468.348 205.577 467.927 204.768L461.821 192.946L477.806 183.603C478.516 183.186 479.116 182.603 479.558 181.903C480 181.204 480.269 180.407 480.344 179.581L482.659 153.925C482.684 153.567 482.614 153.208 482.457 152.886C482.301 152.563 482.063 152.288 481.768 152.088Z" fill="#303E44"/>
<path d="M425.187 184.123C425.187 184.123 419.133 248.261 419.356 273.553L429.269 293.158L441.686 279.291L434.328 187.416L425.187 184.123Z" fill="#303E44"/>
<path d="M426.833 169.093C426.833 169.093 438.256 170.827 442.612 173.41C446.18 175.455 439.405 183.499 436.798 186.376C436.487 186.726 436.106 187.006 435.68 187.197C435.255 187.388 434.794 187.487 434.328 187.486C431.738 187.486 426.422 187.07 423.678 183.897C422.083 182.06 422.408 168.279 426.833 169.093Z" fill="#435760"/>
<path d="M384.008 370.991L261.225 299.347L331.938 256.998L454.721 328.643L384.008 370.991Z" fill="#012C61"/>
<path opacity="0.1" d="M384.008 370.991L261.225 299.347L331.938 256.998L454.721 328.643L384.008 370.991Z" fill="black"/>
<path opacity="0.3" d="M384.008 370.991L331.938 256.998L454.721 328.643L384.008 370.991Z" fill="black"/>
<path d="M367.663 171.954C363.752 168.14 362.518 162.974 367.406 157.878C372.294 152.781 379.411 151.741 383.287 155.555C387.163 159.369 386.46 166.58 381.572 171.676C376.684 176.773 371.59 175.767 367.663 171.954Z" fill="#012C61"/>
<path opacity="0.2" d="M367.663 171.954C363.752 168.14 362.518 162.974 367.406 157.878C372.294 152.781 379.411 151.741 383.287 155.555C387.163 159.369 386.46 166.58 381.572 171.676C376.684 176.773 371.59 175.767 367.663 171.954Z" fill="black"/>
<path d="M369.893 165.817C370.904 164.829 375.038 166.025 373.837 169.856C373.837 169.856 367.834 177.709 364.679 182.493C363.958 183.585 358.401 181.522 360.34 178.021C362.994 173.557 366.205 169.455 369.893 165.817Z" fill="#012C61"/>
<path d="M346.07 247.256C345.893 247.254 345.718 247.216 345.555 247.145C345.393 247.074 345.246 246.971 345.123 246.842C345 246.712 344.904 246.56 344.84 246.393C344.775 246.226 344.745 246.048 344.749 245.869C345.384 203.33 360.614 180.673 361.266 179.737C361.468 179.44 361.779 179.237 362.129 179.172C362.48 179.107 362.842 179.186 363.135 179.39C363.428 179.595 363.629 179.909 363.694 180.263C363.758 180.618 363.68 180.983 363.478 181.28C363.324 181.505 348.042 204.266 347.442 245.921C347.442 246.101 347.406 246.279 347.337 246.444C347.267 246.61 347.165 246.759 347.037 246.884C346.909 247.008 346.757 247.106 346.591 247.17C346.425 247.234 346.248 247.263 346.07 247.256Z" fill="#012C61"/>
<g opacity="0.5">
<path d="M346.07 247.256C345.893 247.254 345.718 247.216 345.555 247.145C345.393 247.074 345.246 246.971 345.123 246.842C345 246.712 344.904 246.56 344.84 246.393C344.775 246.226 344.745 246.048 344.749 245.869C345.384 203.33 360.614 180.673 361.266 179.737C361.468 179.44 361.779 179.237 362.129 179.172C362.48 179.107 362.842 179.186 363.135 179.39C363.428 179.595 363.629 179.909 363.694 180.263C363.758 180.618 363.68 180.983 363.478 181.28C363.324 181.505 348.042 204.266 347.442 245.921C347.442 246.101 347.406 246.279 347.337 246.444C347.267 246.61 347.165 246.759 347.037 246.884C346.909 247.008 346.757 247.106 346.591 247.17C346.425 247.234 346.248 247.263 346.07 247.256Z" fill="black"/>
</g>
<path d="M268.068 287.906L338.489 246.58V239.802C338.488 237.695 337.992 235.619 337.044 233.744C336.095 231.868 334.72 230.247 333.031 229.012C331.343 227.777 329.389 226.964 327.329 226.64C325.27 226.316 323.164 226.49 321.184 227.148L290.81 237.254C290.81 237.254 273.951 241.154 273.951 221.167L268.085 224.443L268.068 287.906Z" fill="#012C61"/>
<path opacity="0.3" d="M268.068 287.906L338.489 246.58V239.802C338.488 237.695 337.992 235.619 337.044 233.744C336.095 231.868 334.72 230.247 333.031 229.012C331.343 227.777 329.389 226.964 327.329 226.64C325.27 226.316 323.164 226.49 321.184 227.148L290.81 237.254C290.81 237.254 273.951 241.154 273.951 221.167L268.085 224.443L268.068 287.906Z" fill="black"/>
<path d="M290.81 237.254L321.201 227.13C324.407 226.062 327.896 226.286 330.943 227.754C329.227 226.267 327.159 225.255 324.942 224.814C322.724 224.374 320.431 224.521 318.286 225.241L287.911 235.364C284.766 235.974 281.513 235.648 278.547 234.428C283.521 238.987 290.81 237.254 290.81 237.254Z" fill="#012C61"/>
<g opacity="0.5">
<path d="M290.81 237.254L321.201 227.13C324.407 226.062 327.896 226.286 330.943 227.754C329.227 226.267 327.159 225.255 324.942 224.814C322.724 224.374 320.431 224.521 318.286 225.241L287.911 235.364C284.766 235.974 281.513 235.648 278.547 234.428C283.521 238.987 290.81 237.254 290.81 237.254Z" fill="black"/>
</g>
<path d="M338.489 246.58L437.09 304.599L374.043 341.886L274.945 285.531L338.489 246.58Z" fill="#012C61"/>
<path opacity="0.1" d="M338.489 246.58L437.09 304.599L374.043 341.886L274.945 285.531L338.489 246.58Z" fill="black"/>
<path d="M378.674 348.37L278.324 289.813V301.098L378.674 359.655V348.37Z" fill="#012C61"/>
<path opacity="0.3" d="M378.674 348.37L278.324 289.813V301.098L378.674 359.655V348.37Z" fill="black"/>
<path d="M378.674 348.37L436.901 313.787V325.072L378.674 359.655V348.37Z" fill="#012C61"/>
<path opacity="0.5" d="M378.674 348.37L436.901 313.787V325.072L378.674 359.655V348.37Z" fill="black"/>
<path d="M278.513 212.482L261.225 223.074V284.162L384.299 356.257V292.812L367.097 265.509L278.513 212.482Z" fill="#012C61"/>
<path d="M278.513 212.482L284.378 209.206L372.98 262.233L367.097 265.509L278.513 212.482Z" fill="#012C61"/>
<path opacity="0.1" d="M278.513 212.482L284.378 209.206L372.98 262.233L367.097 265.509L278.513 212.482Z" fill="black"/>
<path d="M367.097 265.509L372.98 262.233L390.165 289.535L384.299 292.812L367.097 265.509Z" fill="#012C61"/>
<path opacity="0.3" d="M367.097 265.509L372.98 262.233L390.165 289.535L384.299 292.812L367.097 265.509Z" fill="black"/>
<path d="M384.299 356.257L454.721 314.931V308.17C454.722 306.062 454.228 303.984 453.281 302.106C452.333 300.229 450.958 298.605 449.27 297.368C447.581 296.131 445.626 295.317 443.565 294.992C441.504 294.667 439.397 294.841 437.415 295.499L407.024 305.622C407.024 305.622 390.165 309.54 390.165 289.535L384.299 292.812V356.257Z" fill="#012C61"/>
<path opacity="0.3" d="M384.299 356.257L454.721 314.931V308.17C454.722 306.062 454.228 303.984 453.281 302.106C452.333 300.229 450.958 298.605 449.27 297.368C447.581 296.131 445.626 295.317 443.565 294.992C441.504 294.667 439.397 294.841 437.415 295.499L407.024 305.622C407.024 305.622 390.165 309.54 390.165 289.535L384.299 292.812V356.257Z" fill="black"/>
<path d="M407.024 305.622L437.415 295.499C440.621 294.431 444.111 294.654 447.157 296.123C445.441 294.636 443.374 293.623 441.156 293.183C438.938 292.742 436.645 292.889 434.5 293.609L404.126 303.733C400.981 304.352 397.725 304.027 394.761 302.796C399.752 307.304 407.024 305.622 407.024 305.622Z" fill="#012C61"/>
<g opacity="0.5">
<path d="M407.024 305.622L437.415 295.499C440.621 294.431 444.111 294.654 447.157 296.123C445.441 294.636 443.374 293.623 441.156 293.183C438.938 292.742 436.645 292.889 434.5 293.609L404.126 303.733C400.981 304.352 397.725 304.027 394.761 302.796C399.752 307.304 407.024 305.622 407.024 305.622Z" fill="black"/>
</g>
<path d="M261.225 299.347V625.033L384.008 696.677V370.991L261.225 299.347Z" fill="#012C61"/>
<path d="M356.138 402.125L340.633 374.978L340.685 374.944L298.991 350.623L299.042 350.71L283.538 359.759V586.237L299.042 613.384L340.633 637.652L356.138 628.604V402.125Z" fill="#012C61"/>
<path opacity="0.5" d="M356.138 402.125L340.633 374.978L340.685 374.944L298.991 350.623L299.042 350.71L283.538 359.759V586.237L299.042 613.384L340.633 637.652L356.138 628.604V402.125Z" fill="white"/>
<path d="M454.721 328.643V410.48C444.32 416.794 435.712 425.72 429.735 436.391C423.757 447.062 420.613 459.115 420.608 471.377V674.835L384.008 696.625V370.991L454.721 328.643Z" fill="#012C61"/>
<path opacity="0.3" d="M454.721 328.643V410.48C444.32 416.794 435.712 425.72 429.735 436.391C423.757 447.062 420.613 459.115 420.608 471.377V674.835L384.008 696.625V370.991L454.721 328.643Z" fill="black"/>
<path d="M458.46 303.854C458.46 303.854 445.442 311.724 440.52 314.601C435.598 317.479 433.316 319.334 434.311 322.229C435.306 325.124 443.367 323.806 449.267 321.986C449.267 321.986 438.873 330.133 431.173 335.091C423.472 340.049 423.592 342.909 426.593 345.891C429.595 348.872 442.029 353.882 450.707 350.952C459.386 348.023 468.064 340.101 477.051 323.789C477.051 323.789 475.182 304.287 458.46 303.854Z" fill="#FFBBBA"/>
<path d="M503.944 169.371C503.944 169.371 477.874 188.3 492.024 225.033L506.156 261.748L456.504 303.785C456.504 303.785 473.655 310.718 477.308 325.713L529.944 286.849C534.913 283.185 538.603 278.022 540.483 272.103C542.363 266.184 542.336 259.815 540.406 253.912C531.179 225.639 514.2 177.223 503.944 169.371Z" fill="#303E44"/>
<path d="M132.525 539.052C132.525 539.052 107.553 514.402 121.771 473.18C129.729 450.038 156.073 433.033 171.166 431.438C166.185 437.412 162.215 444.177 159.417 451.459L140.551 464.183L157.959 458.671L154.255 473.735C154.255 473.735 138.064 483.615 135.663 485.782L153.106 481.171C153.106 481.171 151.716 523.728 132.525 539.052Z" fill="#012C61"/>
<path opacity="0.4" d="M132.525 539.052C132.525 539.052 107.553 514.402 121.771 473.18C129.729 450.038 156.073 433.033 171.166 431.438C166.185 437.412 162.215 444.177 159.417 451.459L140.551 464.183L157.959 458.671L154.255 473.735C154.255 473.735 138.064 483.615 135.663 485.782L153.106 481.171C153.106 481.171 151.716 523.728 132.525 539.052Z" fill="black"/>
<path d="M132.525 539.052C132.525 539.052 119.593 487.464 138.733 457.388C138.733 457.405 116.3 483.928 132.525 539.052Z" fill="white"/>
<path d="M161.115 546.038L130.552 545.639H130.244L99.6808 546.038C99.6808 546.038 99.3378 584.088 110.932 599.568C114.139 603.676 121.651 606.502 130.398 606.502C139.145 606.502 146.674 603.607 149.864 599.481C161.458 584.053 161.115 546.038 161.115 546.038Z" fill="#303E44"/>
<path d="M130.398 562.697C147.363 562.697 161.115 555.238 161.115 546.038C161.115 536.838 147.363 529.379 130.398 529.379C113.433 529.379 99.6808 536.838 99.6808 546.038C99.6808 555.238 113.433 562.697 130.398 562.697Z" fill="#435760"/>
<path d="M130.398 541.618C140.963 541.618 149.916 545.085 153.071 549.782C153.842 548.687 154.266 547.382 154.289 546.038C154.289 539.451 143.587 534.112 130.398 534.112C117.209 534.112 106.507 539.451 106.507 546.038C106.538 547.38 106.962 548.683 107.725 549.782C110.88 545.033 119.833 541.618 130.398 541.618Z" fill="#2C2C2C"/>
<path d="M130.398 541.618C119.833 541.618 110.88 545.085 107.725 549.782C110.88 554.48 119.833 557.947 130.398 557.947C140.963 557.947 149.916 554.48 153.071 549.782C149.916 545.033 140.963 541.618 130.398 541.618Z" fill="#E0E0E0"/>
<path d="M130.775 551.845C130.775 551.845 118.941 551.377 108.788 535.481C104.603 528.929 102.579 525.496 102.579 525.496L119.078 524.248L100.59 519.585L91.86 506.081L107.296 504.937C107.296 504.937 95.8562 500.881 87.7095 500.829C87.7095 500.829 73.56 475.572 69.4095 471.967C80.1086 472.634 90.5668 475.462 100.167 480.282C109.767 485.102 118.314 491.817 125.304 500.032C148.458 527.836 134.223 552.556 130.775 551.845Z" fill="#012C61"/>
<path d="M130.775 551.845C130.775 551.845 138.184 506.775 90.9339 479.663C90.9339 479.663 139.968 503.464 130.775 551.845Z" fill="white"/>
<path d="M130.775 551.845C130.775 551.845 141.495 552.556 152.145 539.173C156.519 533.661 158.663 530.749 158.663 530.749L143.913 528.062L161.064 525.6L170.188 514.263L156.467 511.767C156.467 511.767 167.152 509.202 174.51 509.93C174.51 509.93 189.637 488.487 193.702 485.661C183.986 485.245 174.286 486.8 165.175 490.236C156.063 493.672 147.726 498.918 140.654 505.665C117.037 528.478 127.602 552.157 130.775 551.845Z" fill="#012C61"/>
<path opacity="0.2" d="M130.775 551.845C130.775 551.845 141.495 552.556 152.145 539.173C156.519 533.661 158.663 530.749 158.663 530.749L143.913 528.062L161.064 525.6L170.188 514.263L156.467 511.767C156.467 511.767 167.152 509.202 174.51 509.93C174.51 509.93 189.637 488.487 193.702 485.661C183.986 485.245 174.286 486.8 165.175 490.236C156.063 493.672 147.726 498.918 140.654 505.665C117.037 528.478 127.602 552.157 130.775 551.845Z" fill="black"/>
<path d="M130.775 551.845C130.775 551.845 128.288 510.467 173.447 490.515C173.447 490.515 126.985 507.329 130.775 551.845Z" fill="white"/>
<path d="M395.807 718.623C395.807 718.623 370.836 693.973 385.037 652.751C393.012 629.592 419.338 612.603 434.431 611.009C429.457 616.987 425.488 623.751 422.683 631.03L403.817 643.754L421.156 638.172L417.452 653.288C417.452 653.288 401.261 663.186 398.877 665.423L416.32 660.812C416.32 660.812 414.982 703.299 395.807 718.623Z" fill="#012C61"/>
<path opacity="0.4" d="M395.807 718.623C395.807 718.623 370.836 693.973 385.037 652.751C393.012 629.592 419.338 612.603 434.431 611.009C429.457 616.987 425.488 623.751 422.683 631.03L403.817 643.754L421.156 638.172L417.452 653.288C417.452 653.288 401.261 663.186 398.877 665.423L416.32 660.812C416.32 660.812 414.982 703.299 395.807 718.623Z" fill="black"/>
<path d="M395.807 718.623C395.807 718.623 382.876 667.035 401.999 636.942C401.999 636.942 379.583 663.498 395.807 718.623Z" fill="white"/>
<path d="M424.381 725.609L393.835 725.21H393.509L362.964 725.609C362.964 725.609 362.621 763.659 374.215 779.139C377.422 783.247 384.917 786.073 393.664 786.073C402.411 786.073 409.957 783.178 413.147 779.035C424.724 763.624 424.381 725.609 424.381 725.609Z" fill="#303E44"/>
<path d="M393.664 742.268C410.628 742.268 424.381 734.809 424.381 725.609C424.381 716.409 410.628 708.95 393.664 708.95C376.699 708.95 362.946 716.409 362.946 725.609C362.946 734.809 376.699 742.268 393.664 742.268Z" fill="#435760"/>
<path d="M393.715 721.189C404.297 721.189 413.233 724.655 416.389 729.353C417.164 728.259 417.595 726.954 417.623 725.609C417.623 719.022 406.921 713.683 393.715 713.683C380.509 713.683 369.704 719.022 369.704 725.609C369.733 726.954 370.163 728.259 370.939 729.353C374.163 724.603 383.099 721.189 393.715 721.189Z" fill="#2C2C2C"/>
<path d="M393.715 721.189C383.15 721.189 374.215 724.655 371.059 729.353C374.215 734.103 383.15 737.518 393.715 737.518C404.28 737.518 413.233 734.051 416.389 729.353C413.181 724.603 404.246 721.189 393.715 721.189Z" fill="#E0E0E0"/>
<path d="M394.041 731.416C394.041 731.416 382.207 730.948 372.054 715.052C367.869 708.499 365.845 705.067 365.845 705.067L382.344 703.819L363.873 699.156L355.143 685.652L370.476 684.491C370.476 684.491 359.053 680.452 350.889 680.4C350.889 680.4 336.74 655.143 332.607 651.537C343.317 652.196 353.789 655.019 363.401 659.84C373.014 664.66 381.572 671.38 388.57 679.602C411.758 707.407 397.505 732.127 394.041 731.416Z" fill="#012C61"/>
<path opacity="0.3" d="M394.041 731.416C394.041 731.416 382.207 730.948 372.054 715.052C367.869 708.499 365.845 705.067 365.845 705.067L382.344 703.819L363.873 699.156L355.143 685.652L370.476 684.491C370.476 684.491 359.053 680.452 350.889 680.4C350.889 680.4 336.74 655.143 332.607 651.537C343.317 652.196 353.789 655.019 363.401 659.84C373.014 664.66 381.572 671.38 388.57 679.602C411.758 707.407 397.505 732.127 394.041 731.416Z" fill="white"/>
<path d="M394.041 731.416C394.041 731.416 401.45 686.346 354.2 659.234C354.268 659.234 403.234 683.035 394.041 731.416Z" fill="white"/>
<path d="M394.041 731.416C394.041 731.416 404.777 732.109 415.411 718.744C419.802 713.232 421.945 710.32 421.945 710.32L407.179 707.633L424.329 705.171L433.471 693.834L419.75 691.321C419.75 691.321 430.435 688.773 437.81 689.501C437.81 689.501 452.92 668.04 457.002 665.232C447.286 664.814 437.585 666.368 428.474 669.804C419.362 673.24 411.025 678.488 403.954 685.236C380.303 708.066 390.868 731.728 394.041 731.416Z" fill="#012C61"/>
<path opacity="0.2" d="M394.041 731.416C394.041 731.416 404.777 732.109 415.411 718.744C419.802 713.232 421.945 710.32 421.945 710.32L407.179 707.633L424.329 705.171L433.471 693.834L419.75 691.321C419.75 691.321 430.435 688.773 437.81 689.501C437.81 689.501 452.92 668.04 457.002 665.232C447.286 664.814 437.585 666.368 428.474 669.804C419.362 673.24 411.025 678.488 403.954 685.236C380.303 708.066 390.868 731.728 394.041 731.416Z" fill="black"/>
<path d="M394.041 731.416C394.041 731.416 391.571 690.038 436.712 670.086C436.712 670.086 390.285 686.883 394.041 731.416Z" fill="white"/>
</g>
</svg>
