<svg width="607" height="492" viewBox="0 0 607 492" fill="none" xmlns="http://www.w3.org/2000/svg">
<path d="M546.177 454.281H505.969V454.612H546.177V454.281Z" fill="#EBEBEB"/>
<path d="M402.1 457.878H391.55V458.209H402.1V457.878Z" fill="#EBEBEB"/>
<path d="M504.758 442.008H481.461V442.338H504.758V442.008Z" fill="#EBEBEB"/>
<path d="M116.121 444.23H63.6882V444.56H116.121V444.23Z" fill="#EBEBEB"/>
<path d="M134.624 444.23H126.939V444.56H134.624V444.23Z" fill="#EBEBEB"/>
<path d="M273.332 449.811H159.605V450.141H273.332V449.811Z" fill="#EBEBEB"/>
<path d="M289.415 374.016H54.992C53.1535 374.016 51.3904 373.22 50.0904 371.804C48.7904 370.388 48.0601 368.467 48.0601 366.464V7.48561C48.0761 5.49424 48.8135 3.59038 50.1117 2.18842C51.41 0.786468 53.164 -7.63452e-05 54.992 5.55806e-09H289.415C290.326 5.55807e-09 291.227 0.19533 292.068 0.57484C292.909 0.95435 293.673 1.51061 294.317 2.21185C294.961 2.91309 295.471 3.74559 295.82 4.66181C296.168 5.57803 296.347 6.56002 296.347 7.55173V366.464C296.347 367.456 296.168 368.438 295.82 369.354C295.471 370.27 294.961 371.103 294.317 371.804C293.673 372.505 292.909 373.061 292.068 373.441C291.227 373.82 290.326 374.016 289.415 374.016ZM54.992 0.26451C53.235 0.268006 51.5509 1.02992 50.3085 2.38338C49.0661 3.73684 48.3668 5.57153 48.3636 7.48561V366.464C48.3668 368.378 49.0661 370.213 50.3085 371.566C51.5509 372.92 53.235 373.682 54.992 373.685H289.415C291.172 373.682 292.857 372.92 294.099 371.566C295.341 370.213 296.041 368.378 296.044 366.464V7.48561C296.041 5.57153 295.341 3.73684 294.099 2.38338C292.857 1.02992 291.172 0.268006 289.415 0.26451H54.992Z" fill="#EBEBEB"/>
<path d="M552.004 374.016H317.581C315.742 374.016 313.979 373.22 312.679 371.804C311.379 370.388 310.649 368.467 310.649 366.464V7.48561C310.665 5.49424 311.402 3.59038 312.701 2.18842C313.999 0.786468 315.753 -7.63452e-05 317.581 5.55806e-09H552.004C553.843 5.55808e-09 555.606 0.795627 556.906 2.21185C558.206 3.62808 558.936 5.54889 558.936 7.55173V366.464C558.936 368.467 558.206 370.388 556.906 371.804C555.606 373.22 553.843 374.016 552.004 374.016ZM317.581 0.26451C315.824 0.268006 314.14 1.02992 312.897 2.38338C311.655 3.73684 310.956 5.57153 310.952 7.48561V366.464C310.956 368.378 311.655 370.213 312.897 371.566C314.14 372.92 315.824 373.682 317.581 373.685H552.004C553.761 373.682 555.445 372.92 556.688 371.566C557.93 370.213 558.63 368.378 558.633 366.464V7.48561C558.63 5.57153 557.93 3.73684 556.688 2.38338C555.445 1.02992 553.761 0.268006 552.004 0.26451H317.581Z" fill="#EBEBEB"/>
<path d="M607 433.001H0V433.332H607V433.001Z" fill="#EBEBEB"/>
<path d="M539.208 33.5265H329.769V284.704H539.208V33.5265Z" fill="#E9E9E9"/>
<path d="M535.572 37.5867H333.817V280.261H535.572V37.5867Z" fill="#F9F9F9"/>
<path d="M412.162 175.211H386.389V280.895H412.162V175.211Z" fill="#F0F0F0"/>
<path d="M388.247 167.09H365.036V280.895H388.247V167.09Z" fill="#F0F0F0"/>
<path d="M369.116 222.121H345.904V280.909H369.116V222.121Z" fill="#EBEBEB"/>
<path d="M434.053 207.388H408.28V280.895H434.053V207.388Z" fill="#F0F0F0"/>
<path d="M371.498 178.253H369.118V180.858H371.498V178.253Z" fill="white"/>
<path d="M384.168 178.253H381.789V180.858H384.168V178.253Z" fill="white"/>
<path d="M371.498 186.717H369.118V189.322H371.498V186.717Z" fill="white"/>
<path d="M377.836 186.717H375.457V189.322H377.836V186.717Z" fill="white"/>
<path d="M384.168 195.168H381.789V197.773H384.168V195.168Z" fill="white"/>
<path d="M371.498 203.619H369.118V206.224H371.498V203.619Z" fill="white"/>
<path d="M377.836 203.619H375.457V206.224H377.836V203.619Z" fill="white"/>
<path d="M377.836 212.083H375.457V214.689H377.836V212.083Z" fill="white"/>
<path d="M384.168 212.083H381.789V214.689H384.168V212.083Z" fill="white"/>
<path d="M377.836 220.534H375.457V223.14H377.836V220.534Z" fill="white"/>
<path d="M384.168 220.534H381.789V223.14H384.168V220.534Z" fill="white"/>
<path d="M384.168 228.985H381.789V231.591H384.168V228.985Z" fill="white"/>
<path d="M377.836 237.45H375.457V240.055H377.836V237.45Z" fill="white"/>
<path d="M426.31 214.689H428.69V212.083H426.31V214.689Z" fill="white"/>
<path d="M413.632 214.689H416.012V212.083H413.632V214.689Z" fill="white"/>
<path d="M426.31 223.14H428.69V220.534H426.31V223.14Z" fill="white"/>
<path d="M419.971 223.14H422.351V220.534H419.971V223.14Z" fill="white"/>
<path d="M413.632 231.604H416.012V228.999H413.632V231.604Z" fill="white"/>
<path d="M426.31 240.042H428.69V237.437H426.31V240.042Z" fill="white"/>
<path d="M419.971 240.042H422.351V237.437H419.971V240.042Z" fill="white"/>
<path d="M419.971 248.506H422.351V245.901H419.971V248.506Z" fill="white"/>
<path d="M413.632 248.506H416.012V245.901H413.632V248.506Z" fill="white"/>
<path d="M419.971 256.97H422.351V254.365H419.971V256.97Z" fill="white"/>
<path d="M413.632 256.97H416.012V254.365H413.632V256.97Z" fill="white"/>
<path d="M413.632 265.422H416.012V262.816H413.632V265.422Z" fill="white"/>
<path d="M419.971 273.873H422.351V271.267H419.971V273.873Z" fill="white"/>
<path d="M464.343 282.72H489.631V151.921H464.343V282.72Z" fill="#F0F0F0"/>
<path d="M487.795 282.72H510.57V141.869H487.795V282.72Z" fill="#F5F5F5"/>
<path d="M506.578 282.734H529.352V209.994H506.578V282.734Z" fill="#EBEBEB"/>
<path d="M442.866 282.72H468.154V191.756H442.866V282.72Z" fill="#F5F5F5"/>
<path d="M504.244 158.943H506.575V155.716H504.244V158.943Z" fill="white"/>
<path d="M491.812 158.943H494.143V155.716H491.812V158.943Z" fill="white"/>
<path d="M504.244 169.405H506.575V166.178H504.244V169.405Z" fill="white"/>
<path d="M498.017 169.405H500.348V166.178H498.017V169.405Z" fill="white"/>
<path d="M491.812 179.853H494.143V176.626H491.812V179.853Z" fill="white"/>
<path d="M504.244 190.327H506.575V187.1H504.244V190.327Z" fill="white"/>
<path d="M498.017 190.327H500.348V187.1H498.017V190.327Z" fill="white"/>
<path d="M498.017 200.789H500.348V197.562H498.017V200.789Z" fill="white"/>
<path d="M491.812 200.789H494.143V197.562H491.812V200.789Z" fill="white"/>
<path d="M498.017 211.263H500.348V208.036H498.017V211.263Z" fill="white"/>
<path d="M491.812 211.263H494.143V208.036H491.812V211.263Z" fill="white"/>
<path d="M491.812 221.725H494.143V218.498H491.812V221.725Z" fill="white"/>
<path d="M498.017 232.173H500.348V228.946H498.017V232.173Z" fill="white"/>
<path d="M450.455 197.562H448.125V200.789H450.455V197.562Z" fill="white"/>
<path d="M462.888 197.562H460.557V200.789H462.888V197.562Z" fill="white"/>
<path d="M450.455 208.023H448.125V211.25H450.455V208.023Z" fill="white"/>
<path d="M456.671 208.023H454.341V211.25H456.671V208.023Z" fill="white"/>
<path d="M462.888 218.484H460.557V221.711H462.888V218.484Z" fill="white"/>
<path d="M450.455 228.959H448.125V232.186H450.455V228.959Z" fill="white"/>
<path d="M456.671 228.959H454.341V232.186H456.671V228.959Z" fill="white"/>
<path d="M456.671 239.42H454.341V242.647H456.671V239.42Z" fill="white"/>
<path d="M462.888 239.42H460.557V242.647H462.888V239.42Z" fill="white"/>
<path d="M456.671 249.882H454.341V253.109H456.671V249.882Z" fill="white"/>
<path d="M462.888 249.882H460.557V253.109H462.888V249.882Z" fill="white"/>
<path d="M462.888 260.343H460.557V263.57H462.888V260.343Z" fill="white"/>
<path d="M456.671 270.804H454.341V274.031H456.671V270.804Z" fill="white"/>
<path d="M398.023 89.9331C398.023 89.9331 334.093 99.8257 340.722 78.665C347.35 57.5043 360.826 78.665 360.826 78.665C360.826 78.665 367.758 65.4395 375.321 69.2617C377.545 70.4582 379.467 72.228 380.92 74.4176C382.374 76.6072 383.315 79.1502 383.661 81.8259C383.661 81.8259 385.907 74.7238 391.965 82.3284C398.023 89.9331 397.44 80.6753 398.023 89.9331Z" fill="#F0F0F0"/>
<path d="M451.79 114.056C451.79 114.056 400.207 121.992 405.549 104.957C410.89 87.9228 421.768 104.957 421.768 104.957C421.768 104.957 427.364 94.2313 433.471 97.3658C435.266 98.3328 436.818 99.762 437.992 101.53C439.166 103.297 439.927 105.35 440.209 107.51C440.209 107.51 442.017 101.783 446.91 107.92C451.802 114.056 451.329 106.557 451.79 114.056Z" fill="#F0F0F0"/>
<path d="M517.966 87.6451C517.966 87.6451 454.462 97.4716 461.042 76.4563C467.622 55.4411 481.012 76.4563 481.012 76.4563C481.012 76.4563 487.896 63.2309 495.41 67.1059C497.619 68.2949 499.528 70.0539 500.971 72.2297C502.414 74.4056 503.347 76.9325 503.69 79.5908C503.69 79.5908 505.923 72.5416 511.945 80.0933C517.966 87.6451 517.384 78.4269 517.966 87.6451Z" fill="#F0F0F0"/>
<path d="M401.568 34.0952H398.023V284.704H401.568V34.0952Z" fill="#E9E9E9"/>
<path d="M468.242 34.0952H464.697V284.704H468.242V34.0952Z" fill="#E9E9E9"/>
<path d="M131.271 183.477H79.4087V433.292H131.271V183.477Z" fill="#E6E6E6"/>
<path d="M262.305 183.477H115.958V433.292H262.305V183.477Z" fill="#F5F5F5"/>
<path d="M255.349 191.28H193.459V425.476H255.349V191.28Z" fill="#EBEBEB"/>
<path d="M186.25 191.28H124.361V425.476H186.25V191.28Z" fill="#EBEBEB"/>
<path d="M193.466 278.964H247.877V266.757H193.466V278.964Z" fill="#F5F5F5"/>
<path d="M124.36 278.964H178.771V266.757H124.36V278.964Z" fill="#F5F5F5"/>
<path d="M193.466 351.823H247.877V339.616H193.466V351.823Z" fill="#F5F5F5"/>
<path d="M124.36 351.823H178.771V339.616H124.36V351.823Z" fill="#F5F5F5"/>
<path d="M228.435 425.476H234.347V358.648H228.435V425.476Z" fill="#FAFAFA"/>
<path d="M222.53 425.476H228.442V364.427H222.53V425.476Z" fill="#E0E0E0"/>
<path d="M234.348 425.476H240.26V364.427H234.348V425.476Z" fill="#E0E0E0"/>
<path d="M200.055 425.476H204.656V364.427H200.055V425.476Z" fill="#E0E0E0"/>
<path d="M193.451 425.476H200.055V359.706H193.451V425.476Z" fill="#F0F0F0"/>
<path d="M213.595 425.476H222.518V364.427H213.595V425.476Z" fill="#F5F5F5"/>
<path d="M204.666 425.476H213.589V360.592H204.666V425.476Z" fill="#E6E6E6"/>
<path d="M159.325 425.476H165.237V358.648H159.325V425.476Z" fill="#E0E0E0"/>
<path d="M153.424 425.476H159.336V364.427H153.424V425.476Z" fill="#E0E0E0"/>
<path d="M165.25 425.476H171.162V364.427H165.25V425.476Z" fill="#FAFAFA"/>
<path d="M130.956 425.476H135.557V364.427H130.956V425.476Z" fill="#E0E0E0"/>
<path d="M124.353 425.476H130.957V359.706H124.353V425.476Z" fill="#F0F0F0"/>
<path d="M144.488 425.476H153.411V364.427H144.488V425.476Z" fill="#F5F5F5"/>
<path d="M135.567 425.476H144.49V360.592H135.567V425.476Z" fill="#E6E6E6"/>
<path d="M199.372 284.268H193.459V340.013H199.372V284.268Z" fill="#FAFAFA"/>
<path d="M205.285 289.082H199.372V340.013H205.285V289.082Z" fill="#E0E0E0"/>
<path d="M227.748 289.082H223.147V340.013H227.748V289.082Z" fill="#E0E0E0"/>
<path d="M239.604 289.082H234.347V340.013H239.604V289.082Z" fill="#E0E0E0"/>
<path d="M234.352 285.154H227.748V340.013H234.352V285.154Z" fill="#F0F0F0"/>
<path d="M214.208 289.082H205.285V340.013H214.208V289.082Z" fill="#F5F5F5"/>
<path d="M223.149 285.895H214.226V340.013H223.149V285.895Z" fill="#E6E6E6"/>
<path d="M129.958 284.268H124.046V340.013H129.958V284.268Z" fill="#E0E0E0"/>
<path d="M135.871 289.082H129.959V340.013H135.871V289.082Z" fill="#E6E6E6"/>
<path d="M158.327 289.082H153.726V340.013H158.327V289.082Z" fill="#E0E0E0"/>
<path d="M164.931 285.154H158.327V340.013H164.931V285.154Z" fill="#F0F0F0"/>
<path d="M171.515 285.154H164.911V340.013H171.515V285.154Z" fill="#F5F5F5"/>
<path d="M144.795 289.082H135.872V340.013H144.795V289.082Z" fill="#F5F5F5"/>
<path d="M153.728 285.895H144.805V340.013H153.728V285.895Z" fill="#E6E6E6"/>
<path d="M199.372 220.746H193.459V266.744H199.372V220.746Z" fill="#FAFAFA"/>
<path d="M205.285 215.826H199.372V266.757H205.285V215.826Z" fill="#E0E0E0"/>
<path d="M240.26 215.826H234.347V266.757H240.26V215.826Z" fill="#E0E0E0"/>
<path d="M227.748 215.826H223.147V266.757H227.748V215.826Z" fill="#E0E0E0"/>
<path d="M234.352 211.885H227.748V266.744H234.352V211.885Z" fill="#F0F0F0"/>
<path d="M214.208 215.826H205.285V266.757H214.208V215.826Z" fill="#F5F5F5"/>
<path d="M223.149 212.626H214.226V266.744H223.149V212.626Z" fill="#E6E6E6"/>
<path d="M159.325 266.757H165.237V220.759H159.325V266.757Z" fill="#FAFAFA"/>
<path d="M153.424 266.744H159.336V215.813H153.424V266.744Z" fill="#E0E0E0"/>
<path d="M165.25 266.744H171.162V215.813H165.25V266.744Z" fill="#E0E0E0"/>
<path d="M130.956 266.744H135.557V215.813H130.956V266.744Z" fill="#E0E0E0"/>
<path d="M124.353 266.757H130.957V224.991H124.353V266.757Z" fill="#E0E0E0"/>
<path d="M144.488 266.744H153.411V215.813H144.488V266.744Z" fill="#F5F5F5"/>
<path d="M135.567 266.757H144.49V212.639H135.567V266.757Z" fill="#E6E6E6"/>
<path d="M194.861 160.372C194.861 160.372 201.489 163.797 203.165 157.978C204.84 152.159 211.845 158.203 213.241 151.365C214.637 144.528 220.367 149.051 222.334 144.29C224.3 139.529 230.917 139.409 230.504 134.529C230.091 129.649 222.419 134.86 218.922 133.458C215.426 132.056 213.192 140.19 208.579 140.203C203.966 140.216 202.436 149.805 199.413 148.667C196.391 147.53 194.011 155.716 194.861 160.372Z" fill="#EBEBEB"/>
<path d="M193.439 162.739C193.439 162.739 206.793 146.009 224.274 135.892C224.274 135.892 215.109 137.32 192.2 162.17L193.439 162.739Z" fill="#E0E0E0"/>
<path d="M170.739 157.991C170.739 157.991 159.959 154.658 163.455 146.088C166.951 137.518 153.282 136.831 158.016 127.427C162.751 118.024 151.946 116.953 154.107 109.335C156.268 101.717 148.766 94.3107 153.743 89.1528C158.721 83.9948 162.727 98.4106 168.032 100.619C173.337 102.828 168.384 114.638 173.677 119.717C178.97 124.795 171.88 137.479 176.396 139.476C180.912 141.473 176.032 153.574 170.739 157.991Z" fill="#E0E0E0"/>
<path d="M170.182 162.263C170.182 162.263 170.182 128.353 159.547 97.6303C159.547 97.6303 168.761 109.308 172.124 162.977L170.182 162.263Z" fill="#FAFAFA"/>
<path d="M187.054 159.102C187.054 159.102 196.099 161.245 196.657 153.468C197.216 145.692 207.389 150.995 207.316 142.002C207.243 133.008 215.486 136.857 216.652 130.31C217.817 123.764 225.951 121.502 224.166 115.564C222.382 109.626 214.309 118.553 209.598 117.918C204.888 117.283 204.293 128.128 198.672 129.609C193.052 131.091 193.61 143.509 189.592 143.06C185.573 142.61 184.796 153.587 187.054 159.102Z" fill="#E0E0E0"/>
<path d="M185.91 162.501C185.91 162.501 198.05 137.373 216.855 119.28C216.855 119.28 205.929 123.962 184.247 162.184L185.91 162.501Z" fill="#F5F5F5"/>
<path d="M144.955 161.06C144.955 161.06 138.642 163.427 137.476 157.237C136.311 151.048 129.5 156.034 128.675 148.826C127.849 141.618 122.289 145.282 120.808 140.124C119.327 134.966 113.245 133.736 113.949 128.856C114.653 123.975 121.354 130.535 124.657 129.689C127.959 128.842 129.513 137.492 133.713 138.259C137.913 139.026 138.715 149.038 141.555 148.376C144.396 147.715 146.047 156.47 144.955 161.06Z" fill="#F0F0F0"/>
<path d="M146.093 163.691C146.093 163.691 134.9 144.475 119.58 131.302C119.58 131.302 127.895 134.265 147.271 163.321L146.093 163.691Z" fill="#E0E0E0"/>
<path d="M153.209 157.251C153.209 157.251 149.021 160.636 142.441 147.636C135.861 134.635 129.864 119.227 121.924 114.572C121.924 114.572 132.85 112.39 143.266 128.168C153.682 143.946 155.394 155.902 153.209 157.251Z" fill="#E0E0E0"/>
<path d="M156.038 162.356C152.749 154.156 149.738 147.503 147.043 142.121C146.502 140.131 146.468 138.019 146.946 136.011C146.187 137.329 145.918 138.914 146.193 140.441C143.959 136.09 141.968 132.625 140.22 129.861C139.443 126.911 140.341 125.893 140.341 125.893C139.334 126.33 139.297 127.599 139.467 128.644C134.708 121.383 132.038 119.73 132.038 119.73C133.167 121.172 134.247 122.64 135.303 124.134C133.989 123.276 132.477 122.845 130.945 122.891C132.867 123.214 134.677 124.085 136.19 125.417C138.29 128.485 140.208 131.62 141.956 134.675C140.307 132.967 138.284 131.747 136.08 131.13C136.542 131.263 139.419 132.281 143.109 136.738C145.1 140.348 146.824 143.84 148.305 147.027C146.464 145.503 144.178 144.756 141.871 144.924C144.46 145.253 146.9 146.419 148.876 148.271C150.973 152.84 152.853 157.523 154.509 162.303L156.038 162.356Z" fill="#F5F5F5"/>
<path d="M160.661 156.576C160.661 156.576 155.805 158.772 152.296 144.435C148.788 130.099 146.226 113.58 139.598 107.02C139.598 107.02 150.718 107.748 157.347 125.748C163.975 143.747 163.052 155.822 160.661 156.576Z" fill="#F5F5F5"/>
<path d="M162.291 162.263C160.883 153.442 159.414 146.207 157.97 140.269C157.873 138.202 158.292 136.145 159.184 134.318C158.163 135.408 157.557 136.876 157.484 138.431C156.27 133.63 155.056 129.742 153.988 126.62C153.878 123.565 154.971 122.864 154.971 122.864C153.891 123.023 153.575 124.187 153.514 125.298C150.479 117.006 148.258 114.718 148.258 114.718C149.035 116.41 149.763 118.117 150.455 119.836C149.367 118.661 147.994 117.849 146.497 117.495C148.295 118.309 149.861 119.628 151.038 121.317C152.41 124.848 153.587 128.379 154.68 131.818C153.449 129.728 151.748 128.016 149.739 126.845C150.151 127.097 152.725 128.829 155.347 134.119C156.476 138.087 157.399 142.055 158.14 145.467C156.685 143.506 154.628 142.185 152.349 141.75C154.791 142.741 156.905 144.506 158.419 146.816C159.465 151.797 160.275 156.834 160.847 161.906L162.291 162.263Z" fill="#E0E0E0"/>
<path d="M179.671 156.153C179.671 156.153 186.008 158.798 190.184 140.058C194.36 121.317 197.068 99.6935 205.578 90.9118C205.578 90.9118 191.131 92.2343 183.046 115.934C174.961 139.634 176.49 155.267 179.671 156.153Z" fill="#F5F5F5"/>
<path d="M177.669 163.612C179.235 152.093 180.923 142.623 182.623 134.847C182.672 132.145 182.047 129.48 180.814 127.136C182.179 128.515 183.016 130.404 183.157 132.426C184.589 126.131 186.022 121.039 187.345 116.939C187.345 112.972 185.961 112.086 185.961 112.086C187.369 112.244 187.806 113.818 187.916 115.207C191.63 104.296 194.447 101.241 194.447 101.241C193.488 103.463 192.589 105.724 191.74 107.986C193.122 106.423 194.881 105.318 196.814 104.798C194.503 105.925 192.506 107.695 191.023 109.93C189.36 114.572 187.928 119.188 186.689 123.724C188.225 120.969 190.387 118.691 192.966 117.111C192.432 117.455 189.13 119.756 185.888 126.766C184.529 132.056 183.46 137.082 182.598 141.631C184.432 139.032 187.066 137.242 190.016 136.592C185.439 138.907 183.29 141.592 182.27 143.404C181.09 149.914 180.223 156.487 179.673 163.096L177.669 163.612Z" fill="#E0E0E0"/>
<path d="M215.472 166.641L213.044 176.93C212.565 178.892 211.507 180.629 210.032 181.871C208.558 183.114 206.75 183.794 204.886 183.807H139.366C137.503 183.794 135.694 183.114 134.22 181.871C132.746 180.629 131.688 178.892 131.208 176.93L128.78 166.641C128.614 165.938 128.597 165.203 128.731 164.491C128.865 163.78 129.147 163.112 129.555 162.538C129.962 161.963 130.485 161.498 131.083 161.178C131.681 160.858 132.339 160.69 133.005 160.689H211.235C211.904 160.686 212.564 160.85 213.164 161.168C213.765 161.487 214.291 161.952 214.7 162.527C215.11 163.103 215.392 163.773 215.526 164.486C215.66 165.199 215.642 165.936 215.472 166.641Z" fill="#E6E6E6"/>
<path d="M303.503 492C433.501 492 538.885 485.297 538.885 477.029C538.885 468.76 433.501 462.058 303.503 462.058C173.504 462.058 68.1199 468.76 68.1199 477.029C68.1199 485.297 173.504 492 303.503 492Z" fill="#F5F5F5"/>
<path d="M429.89 460.51L402.551 394.476H338.634L348.418 456.278C348.534 456.999 348.517 457.737 348.37 458.451C348.223 459.165 347.948 459.84 347.562 460.439C347.175 461.037 346.684 461.546 346.116 461.937C345.549 462.329 344.916 462.594 344.254 462.719C343.982 462.772 343.706 462.799 343.429 462.798H315.398C314.676 462.798 313.985 463.11 313.475 463.666C312.965 464.222 312.678 464.975 312.678 465.761V469.041C312.678 469.826 312.965 470.58 313.475 471.135C313.985 471.691 314.676 472.003 315.398 472.003H427.911C428.694 472.003 429.444 471.665 429.997 471.062C430.55 470.459 430.861 469.642 430.861 468.789V465.377C430.853 463.699 430.522 462.041 429.89 460.51ZM400.293 452.31H369.603C368.635 452.307 367.7 451.933 366.961 451.254C366.222 450.574 365.726 449.632 365.56 448.594L360.935 419.498C360.842 418.92 360.855 418.327 360.973 417.754C361.091 417.181 361.311 416.639 361.621 416.159C361.931 415.679 362.325 415.27 362.78 414.956C363.235 414.641 363.742 414.428 364.273 414.327C364.512 414.307 364.751 414.307 364.99 414.327H388.189C388.982 414.327 389.757 414.577 390.423 415.047C391.088 415.516 391.615 416.184 391.94 416.972L404.08 446.068C404.358 446.75 404.476 447.496 404.423 448.24C404.371 448.984 404.149 449.702 403.778 450.329C403.407 450.956 402.898 451.473 402.299 451.833C401.699 452.192 401.026 452.384 400.341 452.39L400.293 452.31Z" fill="#263238"/>
<path opacity="0.5" d="M429.89 460.51L402.551 394.476H338.634L348.418 456.278C348.534 456.999 348.517 457.737 348.37 458.451C348.223 459.165 347.948 459.84 347.562 460.439C347.175 461.037 346.684 461.546 346.116 461.937C345.549 462.329 344.916 462.594 344.254 462.719C343.982 462.772 343.706 462.799 343.429 462.798H315.398C314.676 462.798 313.985 463.11 313.475 463.666C312.965 464.222 312.678 464.975 312.678 465.761V469.041C312.678 469.826 312.965 470.58 313.475 471.135C313.985 471.691 314.676 472.003 315.398 472.003H427.911C428.694 472.003 429.444 471.665 429.997 471.062C430.55 470.459 430.861 469.642 430.861 468.789V465.377C430.853 463.699 430.522 462.041 429.89 460.51ZM400.293 452.31H369.603C368.635 452.307 367.7 451.933 366.961 451.254C366.222 450.574 365.726 449.632 365.56 448.594L360.935 419.498C360.842 418.92 360.855 418.327 360.973 417.754C361.091 417.181 361.311 416.639 361.621 416.159C361.931 415.679 362.325 415.27 362.78 414.956C363.235 414.641 363.742 414.428 364.273 414.327C364.512 414.307 364.751 414.307 364.99 414.327H388.189C388.982 414.327 389.757 414.577 390.423 415.047C391.088 415.516 391.615 416.184 391.94 416.972L404.08 446.068C404.358 446.75 404.476 447.496 404.423 448.24C404.371 448.984 404.149 449.702 403.778 450.329C403.407 450.956 402.898 451.473 402.299 451.833C401.699 452.192 401.026 452.384 400.341 452.39L400.293 452.31Z" fill="white"/>
<path opacity="0.2" d="M400.291 452.31H369.601C368.634 452.307 367.699 451.933 366.959 451.254C366.22 450.574 365.724 449.632 365.559 448.594L360.933 419.498C360.841 418.92 360.854 418.327 360.972 417.754C361.089 417.181 361.31 416.639 361.62 416.159C361.93 415.679 362.323 415.27 362.778 414.956C363.234 414.641 363.741 414.428 364.272 414.327C364.51 414.307 364.75 414.307 364.988 414.327H388.188C388.98 414.327 389.756 414.577 390.422 415.047C391.087 415.516 391.614 416.184 391.939 416.972L404.079 446.068C404.357 446.75 404.475 447.496 404.422 448.24C404.369 448.984 404.147 449.702 403.776 450.329C403.406 450.956 402.897 451.473 402.297 451.833C401.697 452.192 401.025 452.384 400.34 452.39L400.291 452.31Z" fill="white"/>
<path d="M368.595 414.181H364.953C364.413 414.18 363.879 414.294 363.379 414.518C362.88 414.742 362.426 415.071 362.044 415.486C361.662 415.901 361.358 416.395 361.151 416.938C360.944 417.481 360.838 418.063 360.838 418.652C360.834 418.909 360.854 419.166 360.899 419.419L365.524 448.515C365.689 449.553 366.185 450.495 366.925 451.174C367.664 451.854 368.599 452.228 369.567 452.231H373.209C372.239 452.231 371.301 451.858 370.559 451.178C369.817 450.499 369.32 449.555 369.154 448.515L364.528 419.419C364.345 418.249 364.595 417.048 365.223 416.079C365.851 415.11 366.806 414.451 367.879 414.248C368.116 414.205 368.355 414.182 368.595 414.181Z" fill="#263238"/>
<path d="M433.507 460.51L406.143 394.542H402.501L429.841 460.51C430.483 462.051 430.814 463.724 430.812 465.417V468.829C430.812 469.681 430.501 470.499 429.948 471.102C429.394 471.704 428.644 472.043 427.862 472.043H431.504C431.891 472.043 432.274 471.96 432.631 471.798C432.988 471.636 433.312 471.399 433.585 471.101C433.858 470.802 434.075 470.448 434.221 470.058C434.368 469.668 434.443 469.25 434.442 468.829V465.417C434.455 463.727 434.137 462.054 433.507 460.51Z" fill="#263238"/>
<path opacity="0.2" d="M402.526 394.476H338.609L341.122 410.24H409.07L402.526 394.476Z" fill="black"/>
<path d="M494.206 401.406H221.542C220.364 401.43 219.192 401.202 218.095 400.733C216.998 400.264 215.997 399.565 215.148 398.674C214.299 397.784 213.619 396.72 213.148 395.544C212.676 394.367 212.422 393.101 212.4 391.817C212.375 391.377 212.375 390.935 212.4 390.495L229.676 175.899C229.951 172.953 231.207 170.219 233.207 168.213C235.207 166.208 237.811 165.07 240.529 165.014H513.205C515.586 164.968 517.886 165.953 519.6 167.754C521.314 169.554 522.302 172.022 522.347 174.616C522.372 175.056 522.372 175.498 522.347 175.938L505.023 390.534C504.753 393.474 503.503 396.204 501.51 398.208C499.516 400.211 496.918 401.349 494.206 401.406Z" fill="#263238"/>
<path opacity="0.3" d="M494.206 401.406H221.542C220.364 401.43 219.192 401.202 218.095 400.733C216.998 400.264 215.997 399.565 215.148 398.674C214.299 397.784 213.619 396.72 213.148 395.544C212.676 394.367 212.422 393.101 212.4 391.817C212.375 391.377 212.375 390.935 212.4 390.495L229.676 175.899C229.951 172.953 231.207 170.219 233.207 168.213C235.207 166.208 237.811 165.07 240.529 165.014H513.205C515.586 164.968 517.886 165.953 519.6 167.754C521.314 169.554 522.302 172.022 522.347 174.616C522.372 175.056 522.372 175.498 522.347 175.938L505.023 390.534C504.753 393.474 503.503 396.204 501.51 398.208C499.516 400.211 496.918 401.349 494.206 401.406Z" fill="white"/>
<path d="M214.306 367.337L212.448 390.534C212.182 393.112 212.866 395.7 214.351 397.728C215.835 399.757 217.998 401.061 220.364 401.353C220.768 401.381 221.173 401.381 221.578 401.353H494.206C496.923 401.302 499.529 400.166 501.528 398.159C503.527 396.152 504.779 393.415 505.047 390.468L506.916 367.271L214.306 367.337Z" fill="#023F8A"/>
<path opacity="0.7" d="M214.306 367.337L212.448 390.534C212.182 393.112 212.866 395.7 214.351 397.728C215.835 399.757 217.998 401.061 220.364 401.353C220.768 401.381 221.173 401.381 221.578 401.353H494.206C496.923 401.302 499.529 400.166 501.528 398.159C503.527 396.152 504.779 393.415 505.047 390.468L506.916 367.271L214.306 367.337Z" fill="white"/>
<path d="M497.294 360.764H224.981C224.342 360.78 223.705 360.658 223.109 360.405C222.513 360.152 221.968 359.773 221.507 359.29C221.045 358.807 220.676 358.229 220.42 357.59C220.165 356.951 220.027 356.263 220.016 355.566C220.004 355.337 220.004 355.108 220.016 354.879L234.305 177.472C234.466 175.883 235.15 174.412 236.23 173.33C237.31 172.248 238.714 171.629 240.181 171.587H512.493C513.133 171.573 513.769 171.697 514.364 171.951C514.96 172.206 515.504 172.586 515.964 173.071C516.424 173.555 516.792 174.133 517.046 174.773C517.301 175.413 517.437 176.101 517.446 176.798C517.464 177.022 517.464 177.248 517.446 177.472L503.182 354.879C503.02 356.47 502.335 357.943 501.252 359.026C500.169 360.108 498.763 360.725 497.294 360.764Z" fill="#023F8A"/>
<path opacity="0.8" d="M497.294 360.764H224.981C224.342 360.78 223.705 360.658 223.109 360.405C222.513 360.152 221.968 359.773 221.507 359.29C221.045 358.807 220.676 358.229 220.42 357.59C220.165 356.951 220.027 356.263 220.016 355.566C220.004 355.337 220.004 355.108 220.016 354.879L234.305 177.472C234.466 175.883 235.15 174.412 236.23 173.33C237.31 172.248 238.714 171.629 240.181 171.587H512.493C513.133 171.573 513.769 171.697 514.364 171.951C514.96 172.206 515.504 172.586 515.964 173.071C516.424 173.555 516.792 174.133 517.046 174.773C517.301 175.413 517.437 176.101 517.446 176.798C517.464 177.022 517.464 177.248 517.446 177.472L503.182 354.879C503.02 356.47 502.335 357.943 501.252 359.026C500.169 360.108 498.763 360.725 497.294 360.764Z" fill="#023F8A"/>
<path opacity="0.8" d="M497.294 360.764H224.981C224.342 360.78 223.705 360.658 223.109 360.405C222.513 360.152 221.968 359.773 221.507 359.29C221.045 358.807 220.676 358.229 220.42 357.59C220.165 356.951 220.027 356.263 220.016 355.566C220.004 355.337 220.004 355.108 220.016 354.879L234.305 177.472C234.466 175.883 235.15 174.412 236.23 173.33C237.31 172.248 238.714 171.629 240.181 171.587H512.493C513.133 171.573 513.769 171.697 514.364 171.951C514.96 172.206 515.504 172.586 515.964 173.071C516.424 173.555 516.792 174.133 517.046 174.773C517.301 175.413 517.437 176.101 517.446 176.798C517.464 177.022 517.464 177.248 517.446 177.472L503.182 354.879C503.02 356.47 502.335 357.943 501.252 359.026C500.169 360.108 498.763 360.725 497.294 360.764Z" fill="white"/>
<g opacity="0.5">
<path d="M301.289 360.777H276.414L313.332 171.587H338.194L301.289 360.777Z" fill="white"/>
<path d="M317.022 360.777H310.661L347.578 171.587H353.94L317.022 360.777Z" fill="white"/>
<path d="M409.651 360.777H405.475L442.393 171.587H446.557L409.651 360.777Z" fill="white"/>
<path d="M425.401 360.777H419.039L455.945 171.587H462.306L425.401 360.777Z" fill="white"/>
</g>
<path d="M519.23 165.04H513.16C514.338 165.016 515.509 165.244 516.606 165.713C517.703 166.182 518.705 166.881 519.554 167.772C520.403 168.662 521.082 169.726 521.554 170.902C522.025 172.079 522.279 173.345 522.301 174.629C522.327 175.069 522.327 175.511 522.301 175.951L505.026 390.534C504.759 393.481 503.506 396.218 501.508 398.225C499.509 400.232 496.903 401.368 494.185 401.419H500.255C502.972 401.366 505.577 400.228 507.575 398.222C509.573 396.215 510.826 393.48 511.096 390.534L528.323 175.898C528.453 174.622 528.35 173.33 528.021 172.096C527.693 170.863 527.144 169.712 526.406 168.71C525.669 167.707 524.757 166.873 523.724 166.255C522.69 165.637 521.555 165.246 520.383 165.107C520.001 165.051 519.615 165.029 519.23 165.04Z" fill="#263238"/>
<path opacity="0.6" d="M519.23 165.04H513.16C514.338 165.016 515.509 165.244 516.606 165.713C517.703 166.182 518.705 166.881 519.554 167.772C520.403 168.662 521.082 169.726 521.554 170.902C522.025 172.079 522.279 173.345 522.301 174.629C522.327 175.069 522.327 175.511 522.301 175.951L505.026 390.534C504.759 393.481 503.506 396.218 501.508 398.225C499.509 400.232 496.903 401.368 494.185 401.419H500.255C502.972 401.366 505.577 400.228 507.575 398.222C509.573 396.215 510.826 393.48 511.096 390.534L528.323 175.898C528.453 174.622 528.35 173.33 528.021 172.096C527.693 170.863 527.144 169.712 526.406 168.71C525.669 167.707 524.757 166.873 523.724 166.255C522.69 165.637 521.555 165.246 520.383 165.107C520.001 165.051 519.615 165.029 519.23 165.04Z" fill="white"/>
<path d="M374.692 294.531C374.126 300.558 371.554 306.15 367.46 310.252C363.367 314.353 358.036 316.678 352.476 316.789C349.861 316.836 347.268 316.276 344.867 315.147C342.466 314.018 340.314 312.345 338.552 310.24C336.791 308.134 335.461 305.645 334.651 302.936C333.84 300.228 333.569 297.363 333.853 294.531C334.419 288.504 336.992 282.911 341.085 278.81C345.179 274.709 350.509 272.383 356.069 272.272L356.992 260.898C339.935 260.898 324.906 275.949 323.413 294.531C321.92 313.113 334.533 328.163 351.59 328.163C368.646 328.163 383.627 313.099 385.133 294.531H374.692Z" fill="#023F8A"/>
<path d="M388.793 289.637C390.287 271.056 377.673 256.005 360.616 256.005L359.706 267.379C362.323 267.326 364.92 267.882 367.325 269.008C369.729 270.135 371.886 271.807 373.65 273.914C375.415 276.02 376.747 278.512 377.558 281.223C378.369 283.934 378.64 286.803 378.353 289.637H388.793Z" fill="#023F8A"/>
<path opacity="0.3" d="M388.793 289.637C390.287 271.056 377.673 256.005 360.616 256.005L359.706 267.379C362.323 267.326 364.92 267.882 367.325 269.008C369.729 270.135 371.886 271.807 373.65 273.914C375.415 276.02 376.747 278.512 377.558 281.223C378.369 283.934 378.64 286.803 378.353 289.637H388.793Z" fill="black"/>
<path d="M363.215 294.531C362.957 297.274 361.786 299.82 359.922 301.686C358.059 303.553 355.633 304.611 353.102 304.661C351.91 304.686 350.727 304.434 349.632 303.921C348.537 303.409 347.555 302.648 346.75 301.689C345.946 300.731 345.339 299.596 344.969 298.362C344.599 297.128 344.474 295.822 344.604 294.531C344.851 291.776 346.019 289.216 347.886 287.338C349.753 285.46 352.188 284.396 354.729 284.347L355.142 279.163C351.319 279.259 347.662 280.874 344.857 283.705C342.053 286.536 340.296 290.386 339.918 294.531C339.723 296.48 339.911 298.452 340.47 300.316C341.029 302.18 341.946 303.893 343.16 305.34C344.374 306.788 345.857 307.937 347.511 308.712C349.164 309.487 350.95 309.869 352.75 309.833C356.562 309.741 360.212 308.135 363.013 305.317C365.815 302.499 367.574 298.663 367.961 294.531H363.215Z" fill="#023F8A"/>
<path opacity="0.3" d="M363.215 294.531C362.957 297.274 361.786 299.82 359.922 301.686C358.059 303.553 355.633 304.611 353.102 304.661C351.91 304.686 350.727 304.434 349.632 303.921C348.537 303.409 347.555 302.648 346.75 301.689C345.946 300.731 345.339 299.596 344.969 298.362C344.599 297.128 344.474 295.822 344.604 294.531C344.851 291.776 346.019 289.216 347.886 287.338C349.753 285.46 352.188 284.396 354.729 284.347L355.142 279.163C351.319 279.259 347.662 280.874 344.857 283.705C342.053 286.536 340.296 290.386 339.918 294.531C339.723 296.48 339.911 298.452 340.47 300.316C341.029 302.18 341.946 303.893 343.16 305.34C344.374 306.788 345.857 307.937 347.511 308.712C349.164 309.487 350.95 309.869 352.75 309.833C356.562 309.741 360.212 308.135 363.013 305.317C365.815 302.499 367.574 298.663 367.961 294.531H363.215Z" fill="black"/>
<path d="M369.639 292.282C369.834 290.333 369.646 288.361 369.087 286.497C368.528 284.633 367.611 282.92 366.397 281.473C365.183 280.025 363.7 278.876 362.046 278.101C360.393 277.327 358.607 276.945 356.807 276.981L356.395 282.152C357.586 282.127 358.769 282.379 359.864 282.892C360.96 283.405 361.942 284.165 362.746 285.124C363.55 286.083 364.157 287.217 364.528 288.451C364.898 289.685 365.022 290.992 364.893 292.282H369.639Z" fill="#023F8A"/>
<path d="M429.755 312.041H405.232C405.018 312.044 404.805 311.998 404.609 311.905C404.412 311.813 404.236 311.675 404.091 311.503C403.947 311.331 403.837 311.127 403.77 310.905C403.703 310.683 403.68 310.448 403.703 310.216C403.75 309.722 403.961 309.265 404.296 308.928C404.632 308.592 405.068 308.401 405.524 308.391H430.095C430.309 308.388 430.521 308.434 430.717 308.527C430.913 308.62 431.089 308.757 431.232 308.93C431.376 309.103 431.484 309.307 431.55 309.528C431.615 309.75 431.637 309.985 431.612 310.216C431.567 310.718 431.352 311.183 431.008 311.52C430.664 311.858 430.218 312.044 429.755 312.041Z" fill="#263238"/>
<path d="M423.04 319.223H404.648C404.434 319.226 404.222 319.18 404.026 319.087C403.83 318.994 403.654 318.857 403.511 318.684C403.367 318.511 403.259 318.307 403.193 318.085C403.128 317.864 403.107 317.629 403.131 317.398C403.175 316.903 403.386 316.443 403.722 316.107C404.058 315.77 404.495 315.58 404.952 315.572H423.332C423.551 315.561 423.769 315.602 423.972 315.692C424.175 315.782 424.358 315.92 424.507 316.095C424.656 316.27 424.768 316.479 424.836 316.706C424.903 316.933 424.925 317.174 424.898 317.411C424.85 317.91 424.633 318.372 424.29 318.707C423.946 319.042 423.501 319.225 423.04 319.223Z" fill="#263238"/>
<path d="M280.082 315.057H304.641C305.096 315.05 305.532 314.861 305.867 314.528C306.203 314.194 306.415 313.737 306.462 313.245C306.488 313.013 306.468 312.778 306.404 312.555C306.339 312.332 306.231 312.127 306.087 311.954C305.943 311.781 305.766 311.643 305.569 311.551C305.372 311.459 305.159 311.414 304.945 311.42H280.434C279.978 311.427 279.54 311.617 279.204 311.954C278.868 312.29 278.658 312.75 278.613 313.245C278.589 313.471 278.609 313.701 278.672 313.918C278.735 314.135 278.839 314.336 278.977 314.507C279.116 314.678 279.286 314.815 279.476 314.91C279.666 315.004 279.873 315.054 280.082 315.057Z" fill="#263238"/>
<path d="M285.664 322.238H304.056C304.512 322.228 304.948 322.037 305.283 321.701C305.619 321.365 305.83 320.907 305.877 320.413C305.901 320.18 305.88 319.945 305.813 319.722C305.747 319.499 305.638 319.295 305.493 319.122C305.348 318.949 305.171 318.812 304.973 318.72C304.776 318.628 304.562 318.583 304.347 318.588H285.967C285.51 318.595 285.07 318.785 284.732 319.121C284.395 319.457 284.182 319.917 284.134 320.413C284.112 320.645 284.135 320.88 284.202 321.102C284.269 321.324 284.378 321.527 284.523 321.7C284.667 321.872 284.844 322.009 285.04 322.102C285.237 322.195 285.45 322.241 285.664 322.238Z" fill="#263238"/>
<path d="M399.099 311.261H390.735L371.76 288.619H365.653L365.811 286.701H372.646L391.609 309.357H399.257L399.099 311.261Z" fill="#263238"/>
<path d="M309.46 315.242H317.824L336.799 292.587H342.906L342.76 290.682H335.913L316.95 313.324H309.302L309.46 315.242Z" fill="#263238"/>
<path opacity="0.1" d="M299.289 199.083H254.868L255.609 189.851H300.029L299.289 199.083Z" fill="black"/>
<path opacity="0.1" d="M297.807 217.532H253.387L254.128 208.301H298.548L297.807 217.532Z" fill="black"/>
<path opacity="0.1" d="M296.326 235.982H251.906L252.647 226.75H297.067L296.326 235.982Z" fill="black"/>
<path opacity="0.2" d="M298.548 208.301H254.128L254.868 199.083H299.288L298.548 208.301Z" fill="white"/>
<path opacity="0.2" d="M297.067 226.75H252.647L253.388 217.532H297.808L297.067 226.75Z" fill="white"/>
<path d="M280.018 234.924C274.069 234.924 273.074 224.026 272.03 212.44C271.058 201.86 270.051 190.79 264.843 190.79C260.582 190.79 255.701 206.423 254.184 212.44L253.322 212.268C254.302 208.503 255.469 204.799 256.818 201.172C259.671 193.634 262.402 189.812 264.928 189.812C270.876 189.812 271.872 200.723 272.916 212.295C273.887 222.875 274.895 233.945 280.103 233.945C284.254 233.945 288.989 219.093 290.64 212.784C290.674 212.66 290.748 212.552 290.848 212.482C290.948 212.412 291.068 212.383 291.186 212.401C291.243 212.413 291.296 212.438 291.343 212.474C291.39 212.509 291.43 212.556 291.459 212.609C291.489 212.663 291.508 212.722 291.516 212.784C291.523 212.846 291.518 212.909 291.502 212.969C290.546 216.557 289.419 220.089 288.127 223.55C285.286 231.102 282.543 234.924 280.018 234.924Z" fill="#023F8A"/>
<path d="M259.527 229.898C255.011 229.898 253.457 214.371 253.299 212.599L254.198 212.427C254.61 217.016 256.407 228.919 259.6 228.919C262.793 228.919 264.65 221.817 266.374 214.953C268.292 207.362 270.101 200.194 274.095 200.194C277.458 200.194 278.004 206.132 278.575 212.427C279.085 218.048 279.619 223.854 282.217 223.854C284.815 223.854 286.296 218.048 287.716 212.427C289.294 206.132 290.788 200.194 294.15 200.194C295.632 200.194 296.797 202.244 297.707 206.449C298.085 208.261 298.377 210.093 298.582 211.938C298.592 212.07 298.557 212.202 298.483 212.307C298.409 212.413 298.301 212.484 298.181 212.507C298.126 212.52 298.068 212.52 298.013 212.508C297.957 212.495 297.905 212.47 297.859 212.434C297.813 212.398 297.775 212.351 297.746 212.298C297.718 212.244 297.701 212.184 297.695 212.123C297.234 207.706 295.911 201.172 294.053 201.172C291.431 201.172 289.974 206.978 288.554 212.599C286.976 218.894 285.47 224.833 282.108 224.833C278.745 224.833 278.211 218.894 277.64 212.599C277.118 206.978 276.596 201.172 273.998 201.172C270.732 201.172 268.948 208.274 267.224 215.138C265.33 222.73 263.521 229.898 259.527 229.898Z" fill="#023F8A"/>
<g opacity="0.5">
<path d="M259.527 229.898C255.011 229.898 253.457 214.371 253.299 212.599L254.198 212.427C254.61 217.016 256.407 228.919 259.6 228.919C262.793 228.919 264.65 221.817 266.374 214.953C268.292 207.362 270.101 200.194 274.095 200.194C277.458 200.194 278.004 206.132 278.575 212.427C279.085 218.048 279.619 223.854 282.217 223.854C284.815 223.854 286.296 218.048 287.716 212.427C289.294 206.132 290.788 200.194 294.15 200.194C295.632 200.194 296.797 202.244 297.707 206.449C298.085 208.261 298.377 210.093 298.582 211.938C298.592 212.07 298.557 212.202 298.483 212.307C298.409 212.413 298.301 212.484 298.181 212.507C298.126 212.52 298.068 212.52 298.013 212.508C297.957 212.495 297.905 212.47 297.859 212.434C297.813 212.398 297.775 212.351 297.746 212.298C297.718 212.244 297.701 212.184 297.695 212.123C297.234 207.706 295.911 201.172 294.053 201.172C291.431 201.172 289.974 206.978 288.554 212.599C286.976 218.894 285.47 224.833 282.108 224.833C278.745 224.833 278.211 218.894 277.64 212.599C277.118 206.978 276.596 201.172 273.998 201.172C270.732 201.172 268.948 208.274 267.224 215.138C265.33 222.73 263.521 229.898 259.527 229.898Z" fill="black"/>
</g>
<path d="M296.619 236.908H251.3L255.076 190.446C255.088 190.3 255.149 190.164 255.247 190.064C255.346 189.964 255.475 189.907 255.61 189.904C255.674 189.902 255.737 189.914 255.796 189.941C255.855 189.969 255.908 190.009 255.951 190.061C255.993 190.113 256.025 190.174 256.044 190.241C256.063 190.307 256.068 190.378 256.059 190.446L252.417 235.889H296.704C296.767 235.889 296.83 235.903 296.888 235.931C296.945 235.959 296.997 235.999 297.04 236.051C297.082 236.102 297.114 236.162 297.134 236.228C297.153 236.293 297.16 236.363 297.153 236.431C297.128 236.566 297.061 236.686 296.963 236.773C296.866 236.86 296.744 236.907 296.619 236.908Z" fill="#263238"/>
<path d="M398.616 191.862H326.99L325.776 207.216L325.667 208.539L324.538 222.624L324.441 223.947L323.227 239.301H408.948L410.162 223.947L410.259 222.624L411.4 208.539L411.497 207.216L412.711 191.862H398.616ZM384.413 193.184H397.342L396.213 207.269H383.284L384.413 193.184ZM394.974 222.624H382.057L383.187 208.539H396.116L394.974 222.624ZM340.903 208.539H353.832L352.703 222.624H339.774L340.903 208.539ZM354.997 208.539H367.927L366.798 222.624H353.868L354.997 208.539ZM369.092 208.539H382.021L380.892 222.624H367.963L369.092 208.539ZM370.306 193.184H383.223L382.094 207.269H369.201L370.306 193.184ZM356.211 193.184H369.141L367.999 207.269H355.107L356.211 193.184ZM342.117 193.184H355.046L353.917 207.269H341.012L342.117 193.184ZM328.022 193.184H340.951L339.822 207.269H326.918L328.022 193.184ZM326.808 208.539H339.725L338.596 222.624H325.679L326.808 208.539ZM337.37 237.979H324.453L325.582 223.894H338.511L337.37 237.979ZM351.453 237.979H338.548L339.677 223.894H352.606L351.453 237.979ZM365.547 237.979H352.642L353.771 223.894H366.688L365.547 237.979ZM379.642 237.979H366.725L367.866 223.894H380.783L379.642 237.979ZM393.736 237.979H380.819L381.948 223.894H394.877L393.736 237.979ZM407.831 237.979H394.914L396.043 223.894H408.972L407.831 237.979ZM409.045 222.624H396.152L397.281 208.539H410.198L409.045 222.624ZM397.354 207.269L398.483 193.184H411.412L410.332 207.216L397.354 207.269Z" fill="#023F8A"/>
<path d="M341.022 238.561H331.857L333.314 220.481H342.467L341.022 238.561Z" fill="#023F8A"/>
<path d="M355.116 238.561H345.95L347.795 215.535H356.961L355.116 238.561Z" fill="#263238"/>
<path d="M369.892 238.561H360.738L362.584 215.535H371.749L369.892 238.561Z" fill="#023F8A"/>
<path d="M383.299 238.561H374.133L377.01 202.852H386.176L383.299 238.561Z" fill="#263238"/>
<path d="M397.393 238.561H388.227L391.311 200.18H400.477L397.393 238.561Z" fill="#023F8A"/>
<path opacity="0.2" d="M548.166 142.079H539L540.457 124H549.61L548.166 142.079Z" fill="black"/>
<path opacity="0.2" d="M369.892 238.561H360.738L362.584 215.535H371.749L369.892 238.561Z" fill="black"/>
<path opacity="0.2" d="M397.393 238.561H388.227L391.311 200.18H400.477L397.393 238.561Z" fill="black"/>
<path d="M467.703 360.777C472.109 323.442 476.468 283.369 476.468 283.369L441.262 283.13C441.262 283.13 438.008 324.923 435.447 360.777H467.703Z" fill="#263238"/>
<path opacity="0.6" d="M468.947 360.777C470.5 346.89 472.042 332.62 473.378 320.162C473.693 314.964 473.985 309.912 474.276 305.124C471.593 298.366 466.336 294.637 462.658 310.243C458.996 326.833 458.843 344.113 462.209 360.777H468.947Z" fill="black"/>
<path d="M497.082 360.777C495.468 324.076 493.72 282.588 493.72 282.588H459.728C459.728 282.588 462.678 325.412 465.798 360.777H497.082Z" fill="#263238"/>
<path d="M437.942 195.261C435.514 201.318 432.807 207.64 429.93 213.485C428.497 216.448 426.955 219.291 425.353 221.95C423.947 224.359 422.284 226.578 420.4 228.562C420.077 228.889 419.732 229.19 419.368 229.462C419.205 229.557 419.051 229.668 418.906 229.792C418.906 229.792 419.076 229.872 418.906 229.898C418.66 229.9 418.416 229.846 418.19 229.739C417.208 229.29 416.295 228.679 415.483 227.927C414.416 226.986 413.406 225.97 412.46 224.886C408.348 219.925 404.601 214.618 401.255 209.015L395.015 212.176C397.13 219.331 400.176 226.118 404.059 232.331C405.133 234.01 406.322 235.597 407.616 237.079C409.113 238.811 410.835 240.295 412.727 241.484C413.93 242.224 415.227 242.768 416.576 243.097C418.173 243.48 419.825 243.506 421.432 243.176C423.999 242.554 426.4 241.296 428.448 239.5C431.429 236.838 434.067 233.751 436.291 230.321C438.356 227.284 440.268 224.127 442.021 220.865C443.708 217.638 445.299 214.398 446.731 211.078C448.164 207.759 449.548 204.465 450.823 200.948L437.942 195.261Z" fill="#CE7A63"/>
<path d="M421.633 220.997L437.208 233.654C437.208 233.654 437.803 232.94 438.787 231.697C439.515 230.784 440.438 229.581 441.518 228.152C447.588 220.124 456.414 205.471 456.487 198.289C456.596 187.59 446.386 186.016 434.95 196.967C430.009 201.688 427.436 209.518 424.923 214.385C424.085 215.985 423.393 217.387 422.847 218.471C422.07 220.058 421.633 220.997 421.633 220.997Z" fill="#023F8A"/>
<path opacity="0.3" d="M456.587 199.532C453.066 196.993 450.517 203.5 443.548 209.094C440.453 211.568 433.654 227.676 434.213 231.221L437.211 233.654C437.211 233.654 456.672 210.192 456.587 199.532Z" fill="black"/>
<path d="M396.746 214.755L387.836 207.071L397.014 200.643C397.014 200.643 404.298 209.293 402.319 212.268L396.746 214.755Z" fill="#CE7A63"/>
<path d="M421.631 219.344L438.652 233.218L436.527 235.625L420.332 222.598L421.631 219.344Z" fill="#023F8A"/>
<path opacity="0.2" d="M421.631 219.344L438.652 233.218L436.527 235.625L420.332 222.598L421.631 219.344Z" fill="black"/>
<path d="M441.079 283.13H493.779C494.143 278.012 493.063 261.322 493.864 240.082C494.365 224.34 496.12 208.675 499.109 193.264C499.339 192.1 499.582 190.962 499.837 189.798C499.837 189.798 497.166 189.203 493.342 188.595C490.161 188.092 486.167 187.577 482.27 187.365C474.81 186.908 467.332 186.908 459.872 187.365C456.424 187.722 453.062 188.344 450.379 188.899C446.955 189.653 444.928 190.301 444.928 190.301C444.928 190.301 431.95 222.769 441.079 283.13Z" fill="#023F8A"/>
<path d="M387.287 196.028L394.729 193.356L397.011 200.643L387.833 207.071L387.287 196.028Z" fill="#CE7A63"/>
<path d="M505.792 203.156C507.273 206.476 508.463 209.637 509.677 212.93C510.891 216.223 511.959 219.542 512.955 222.955C513.97 226.431 514.817 229.962 515.492 233.535C516.258 237.415 516.616 241.377 516.56 245.345C516.488 247.862 516.029 250.348 515.201 252.699C514.631 254.253 513.808 255.682 512.773 256.918C511.6 258.294 510.155 259.361 508.548 260.039C505.997 261.009 503.242 261.147 500.62 260.436C498.691 259.951 496.823 259.209 495.06 258.227C491.989 256.526 489.095 254.468 486.429 252.09C485.13 250.966 483.892 249.789 482.702 248.559C481.512 247.329 480.359 246.126 479.193 244.737L483.6 238.984C488.55 242.276 493.793 245.014 499.249 247.157C500.342 247.536 501.469 247.788 502.611 247.911C503.558 248.004 504.141 247.713 503.886 247.673C503.724 247.698 503.57 247.766 503.437 247.871C503.316 247.951 503.328 247.938 503.376 247.726C503.53 246.855 503.587 245.967 503.546 245.081C503.424 242.259 503.017 239.46 502.332 236.736C501.664 233.76 500.79 230.718 499.819 227.689C497.913 221.645 495.607 215.429 493.264 209.623L505.792 203.156Z" fill="#CE7A63"/>
<path d="M485.794 240.849L477.478 232.437L473.035 243.348C473.035 243.348 482.006 249.882 484.398 247.316L485.794 240.849Z" fill="#CE7A63"/>
<path d="M467.365 233.522L466.078 241.946L473.035 243.295L477.478 232.437L467.365 233.522Z" fill="#CE7A63"/>
<path opacity="0.3" d="M493.871 240.095C494.371 224.348 496.126 208.679 499.115 193.264C495.594 192.933 489.573 193.264 488.578 199.506C487.497 206.172 488.857 221.83 493.871 240.095Z" fill="black"/>
<path d="M487.264 208.235C489.412 215.539 491.958 222.698 494.888 229.673C495.519 231.247 496.102 232.636 496.587 233.773C497.425 235.757 497.959 236.96 497.959 236.96L517.675 226.01C517.675 226.01 517.456 225.11 517.068 223.603C516.776 222.465 516.376 220.958 515.854 219.265C512.952 209.134 506.931 191.028 500.509 189.759C490.942 187.868 483.755 195.472 487.264 208.235Z" fill="#023F8A"/>
<path d="M469.369 195.433C482.371 195.049 484.325 188.119 484.41 187.815L484.495 187.51L482.274 187.365C474.814 186.908 467.336 186.908 459.875 187.365L458.661 187.51C458.117 188.004 457.697 188.641 457.442 189.361C457.187 190.08 457.105 190.86 457.205 191.624C457.775 194.044 460.847 194.851 463.481 195.194L469.369 195.433Z" fill="white"/>
<path d="M517.214 222.148L495.666 234.157L498.106 237.41L518.137 226.076L517.214 222.148Z" fill="#023F8A"/>
<path opacity="0.2" d="M517.214 222.148L495.666 234.157L498.106 237.41L518.137 226.076L517.214 222.148Z" fill="black"/>
<path d="M472.585 202.759L466.175 196.451L458.393 202.349C458.393 202.349 450.284 193.978 456.305 187.801C457.519 187.629 458.66 187.471 459.874 187.339C467.335 186.882 474.813 186.882 482.273 187.339C483.802 187.418 485.332 187.563 486.837 187.722C486.388 190.116 484.094 197.906 472.585 202.759Z" fill="#023F8A"/>
<path opacity="0.2" d="M472.585 202.759L466.175 196.451L458.393 202.349C458.393 202.349 450.284 193.978 456.305 187.801C457.519 187.629 458.66 187.471 459.874 187.339C467.335 186.882 474.813 186.882 482.273 187.339C483.802 187.418 485.332 187.563 486.837 187.722C486.388 190.116 484.094 197.906 472.585 202.759Z" fill="black"/>
<path d="M468.942 194.004C481.471 193.753 483.134 187.391 483.134 187.391C478.278 182.101 480.123 167.831 481.786 159.962L475.789 165.384L467.631 172.764C467.874 173.95 468.048 175.152 468.153 176.361C468.59 181.175 467.449 185.619 460.942 187.246C460.942 187.246 453.209 192.814 464.681 193.859L468.942 194.004Z" fill="#CE7A63"/>
<path opacity="0.2" d="M467.636 172.804C467.879 173.99 468.053 175.191 468.158 176.401C471.205 175.727 475.272 172.195 475.697 168.81C475.845 167.689 475.878 166.553 475.794 165.424L467.636 172.804Z" fill="black"/>
<path d="M484.268 148.694C482.18 159.129 481.451 165.345 475.77 170.106C473.946 171.68 471.761 172.681 469.453 172.999C467.144 173.317 464.799 172.941 462.673 171.911C460.547 170.881 458.72 169.236 457.391 167.155C456.061 165.075 455.28 162.637 455.132 160.107C454.391 150.387 457.924 134.979 468 132.003C470.169 131.29 472.473 131.213 474.678 131.779C476.884 132.344 478.913 133.533 480.563 135.225C482.212 136.918 483.423 139.054 484.074 141.418C484.724 143.783 484.791 146.292 484.268 148.694Z" fill="#CE7A63"/>
<path d="M469.15 149.739C469.029 150.585 468.507 151.233 467.997 151.167C467.487 151.101 467.159 150.347 467.28 149.487C467.402 148.628 467.912 147.993 468.434 148.059C468.956 148.125 469.271 148.879 469.15 149.739Z" fill="#263238"/>
<path d="M460.224 148.575C460.103 149.434 459.581 150.069 459.01 150.003C458.44 149.937 458.173 149.196 458.294 148.337C458.415 147.477 458.925 146.842 459.447 146.908C459.969 146.974 460.346 147.715 460.224 148.575Z" fill="#263238"/>
<path d="M462.998 149.368C461.669 151.875 460.035 154.175 458.142 156.206C459.356 157.793 461.784 157.462 461.784 157.462L462.998 149.368Z" fill="#BA4D3C"/>
<path d="M472.341 146.961C472.422 146.966 472.503 146.943 472.571 146.895C472.678 146.828 472.756 146.719 472.79 146.591C472.824 146.463 472.811 146.325 472.754 146.207C472.416 145.487 471.92 144.868 471.31 144.406C470.7 143.945 469.995 143.655 469.257 143.562C469.134 143.559 469.014 143.608 468.923 143.699C468.832 143.791 468.778 143.917 468.772 144.052C468.768 144.119 468.777 144.186 468.798 144.249C468.819 144.312 468.852 144.37 468.894 144.419C468.936 144.469 468.986 144.508 469.042 144.536C469.098 144.564 469.159 144.579 469.221 144.581C469.79 144.664 470.334 144.894 470.806 145.25C471.279 145.606 471.668 146.079 471.94 146.631C471.97 146.722 472.024 146.802 472.096 146.861C472.167 146.919 472.252 146.954 472.341 146.961Z" fill="#263238"/>
<path d="M456.866 144.753C456.943 144.751 457.018 144.73 457.085 144.691C457.153 144.652 457.211 144.596 457.255 144.528C457.577 143.982 458.009 143.523 458.518 143.186C459.027 142.849 459.6 142.643 460.193 142.584C460.255 142.585 460.318 142.573 460.376 142.548C460.434 142.523 460.487 142.485 460.531 142.437C460.575 142.388 460.61 142.331 460.633 142.267C460.657 142.204 460.668 142.136 460.666 142.068C460.663 141.933 460.612 141.805 460.523 141.712C460.435 141.618 460.316 141.565 460.193 141.565C459.446 141.625 458.722 141.873 458.078 142.288C457.433 142.703 456.886 143.275 456.478 143.959C456.443 144.014 456.419 144.075 456.406 144.14C456.394 144.205 456.393 144.272 456.404 144.337C456.416 144.402 456.439 144.464 456.472 144.52C456.506 144.575 456.549 144.623 456.599 144.66C456.676 144.722 456.77 144.754 456.866 144.753Z" fill="#263238"/>
<path d="M459.187 160.292C459.187 160.292 462.112 159.472 470.355 159.234C469.457 161.959 467.709 164.22 463.484 164.3C462.956 164.368 462.421 164.316 461.913 164.148C461.404 163.979 460.934 163.698 460.53 163.321C460.126 162.945 459.798 162.481 459.567 161.96C459.336 161.439 459.206 160.871 459.187 160.292Z" fill="#263238"/>
<path d="M465.39 162.118C463.767 162.06 462.168 162.564 460.825 163.559C461.62 164.097 462.55 164.352 463.484 164.287C465.104 164.351 466.7 163.845 468.036 162.845C467.246 162.307 466.32 162.052 465.39 162.118Z" fill="#A02724"/>
<path d="M459.559 160.213C459.645 160.545 459.815 160.845 460.049 161.079C460.282 161.312 460.571 161.47 460.882 161.536C463.329 161.464 465.765 161.167 468.166 160.65C468.548 160.61 468.915 160.469 469.235 160.239C469.555 160.008 469.817 159.695 469.999 159.327C466.503 159.323 463.012 159.619 459.559 160.213Z" fill="white"/>
<path d="M478.79 140.891C477.018 138.907 476.508 136.5 469.175 137.214C461.843 137.928 454.11 144.078 454.255 137.214C454.255 135.627 455.542 137.479 457.958 134.04C457.958 134.04 451.33 137.307 453.406 132.717C455.069 129.014 456.95 134.701 465.436 127.559C473.922 120.418 485.091 126.859 488.308 136.46C489.977 137.047 491.396 138.27 492.304 139.906C493.212 141.541 493.547 143.478 493.249 145.361C492.496 151.498 484.593 156.021 483.78 163.493C483.658 164.551 484.872 166.27 483.901 166.879C483.343 167.223 481.971 165.001 481.971 165.001C481.779 165.419 481.64 165.864 481.558 166.323C481.364 167.315 483.355 169.881 481.643 171.005C480.672 171.64 480.247 169.749 479.664 166.535C479.418 165.11 479.348 163.655 479.458 162.21C479.871 155.756 477.03 158.719 477.139 154.619C477.212 151.775 479.3 147.014 480.575 144.369C480.785 143.955 480.836 143.467 480.718 143.011C480.6 142.555 480.322 142.169 479.944 141.936C479.508 141.661 479.118 141.308 478.79 140.891Z" fill="#263238"/>
<path d="M486.474 159.592C484.926 161.63 482.784 163.031 480.404 163.559C477.382 164.115 476.762 161.073 478.231 158.124C479.615 155.478 482.857 151.987 485.515 152.833C488.174 153.68 488.429 157.026 486.474 159.592Z" fill="#CE7A63"/>
<path d="M162.672 366.457L127.907 362.048C127.691 362.021 127.483 361.947 127.294 361.832C127.104 361.717 126.938 361.563 126.803 361.378C126.668 361.192 126.569 360.98 126.51 360.753C126.45 360.526 126.433 360.288 126.458 360.053L126.609 358.635L163.014 363.251L162.672 366.457Z" fill="#263238"/>
<path opacity="0.2" d="M162.672 366.457L127.907 362.048C127.691 362.021 127.483 361.947 127.294 361.832C127.104 361.717 126.938 361.563 126.803 361.378C126.668 361.192 126.569 360.98 126.51 360.753C126.45 360.526 126.433 360.288 126.458 360.053L126.609 358.635L163.014 363.251L162.672 366.457Z" fill="white"/>
<path d="M184.323 369.271L155.938 365.671C155.503 365.616 155.106 365.375 154.834 365.001C154.562 364.626 154.438 364.15 154.489 363.676L154.64 362.258L184.666 366.065L184.323 369.271Z" fill="#263238"/>
<path opacity="0.5" d="M184.323 369.271L155.938 365.671C155.503 365.616 155.106 365.375 154.834 365.001C154.562 364.626 154.438 364.15 154.489 363.676L154.64 362.258L184.666 366.065L184.323 369.271Z" fill="white"/>
<path d="M177.801 367.397L180.743 367.77L180.866 366.627L177.923 366.254L177.801 367.397Z" fill="#263238"/>
<path d="M173.205 366.819L176.147 367.192L176.269 366.049L173.327 365.676L173.205 366.819Z" fill="#263238"/>
<path d="M182.696 365.816L184.651 366.054L189.762 337.355L187.807 337.104L182.696 365.816Z" fill="#263238"/>
<path opacity="0.3" d="M182.696 365.816L184.651 366.054L189.762 337.355L187.807 337.104L182.696 365.816Z" fill="white"/>
<path d="M183.414 365.909L149.033 361.544L154.157 332.832L188.537 337.196L183.414 365.909Z" fill="#023F8A"/>
<path opacity="0.5" d="M183.414 365.909L149.033 361.544L154.157 332.832L188.537 337.196L183.414 365.909Z" fill="white"/>
<path d="M113.229 303.048C112.282 305.098 111.238 307.32 110.303 309.489C109.368 311.658 108.421 313.853 107.571 316.102C106.722 318.35 105.884 320.479 105.143 322.635C104.466 324.628 103.95 326.681 103.602 328.771C103.478 329.478 103.421 330.195 103.432 330.914V331.099V330.993C103.262 330.729 104.294 332.038 105.034 332.607C105.775 333.176 106.661 333.757 107.571 334.313C111.213 336.561 115.45 338.558 119.517 340.608L118.145 346.798C115.731 346.594 113.331 346.228 110.958 345.7C108.53 345.194 106.137 344.504 103.796 343.637C102.55 343.177 101.334 342.629 100.154 341.997C98.7242 341.265 97.3895 340.331 96.184 339.22C95.3054 338.386 94.5661 337.392 93.9988 336.284C93.9138 336.112 93.8289 335.926 93.756 335.755L93.5739 335.305C93.4626 335.015 93.3654 334.719 93.2825 334.419C93.1228 333.878 92.9971 333.325 92.9062 332.766C92.6319 330.987 92.5748 329.177 92.7362 327.383C93.025 324.489 93.5533 321.629 94.3144 318.839C95.0307 316.194 95.8562 313.681 96.7425 311.208C97.6287 308.735 98.5877 306.341 99.6318 303.987C100.676 301.633 101.696 299.332 102.946 296.951L113.229 303.048Z" fill="#FFB573"/>
<path d="M116.813 340.807L125.553 338.36L126.282 346.93C126.282 346.93 120.382 349.575 116.752 345.436L116.813 340.807Z" fill="#FFB573"/>
<path d="M129.083 339.616L130.94 346.52L126.279 346.93L125.55 338.36L129.083 339.616Z" fill="#FFB573"/>
<path d="M94.6921 313.139L107.172 319.871C107.172 319.871 110.377 320.982 116.277 310.706C123.112 298.803 119.373 292.031 111.13 291.714C102.887 291.396 99.6574 302.731 94.6921 313.139Z" fill="#023F8A"/>
<path opacity="0.5" d="M94.6921 313.139L107.172 319.871C107.172 319.871 110.377 320.982 116.277 310.706C123.112 298.803 119.373 292.031 111.13 291.714C102.887 291.396 99.6574 302.731 94.6921 313.139Z" fill="white"/>
<path opacity="0.2" d="M99.2812 315.652L106.42 319.5L110.049 314.832L106.019 303.127L104.902 301.778L102.098 301.342L99.2812 315.652Z" fill="black"/>
<path d="M94.5923 312.147L108.408 319.844L106.562 322.225L93.8518 315.162L94.5923 312.147Z" fill="#023F8A"/>
<path d="M131.958 261.282C132.371 261.176 132.869 261.573 133.087 262.247C133.306 262.922 133.148 263.57 132.735 263.715C132.323 263.861 131.825 263.411 131.606 262.75C131.388 262.089 131.558 261.388 131.958 261.282Z" fill="#2E353A"/>
<path d="M134.173 268.477C134.633 268.424 135.077 268.262 135.474 268.001C135.87 267.741 136.209 267.388 136.467 266.969C134.889 265.923 133.444 264.656 132.169 263.2L134.173 268.477Z" fill="#ED893E"/>
<path d="M129.23 260.25C129.305 259.742 129.49 259.26 129.768 258.844C130.047 258.428 130.411 258.09 130.833 257.857C130.913 257.814 130.977 257.741 131.013 257.651C131.048 257.561 131.053 257.461 131.027 257.367C130.996 257.263 130.93 257.176 130.841 257.125C130.753 257.073 130.65 257.06 130.554 257.09C130.007 257.367 129.533 257.788 129.173 258.314C128.813 258.84 128.578 259.456 128.49 260.105C128.481 260.157 128.482 260.211 128.493 260.262C128.503 260.314 128.523 260.363 128.552 260.406C128.58 260.449 128.616 260.486 128.657 260.514C128.699 260.541 128.745 260.56 128.793 260.568H128.987C129.049 260.542 129.104 260.499 129.147 260.444C129.189 260.388 129.218 260.322 129.23 260.25Z" fill="#2E353A"/>
<path d="M114.022 292.811C113.597 294.835 113.318 295.8 114.993 296.687C118.438 298.648 122.369 299.357 126.21 298.71C130.18 297.969 130.896 296.422 130.727 295.179C130.59 294.701 130.354 294.265 130.035 293.904C129.717 293.544 129.326 293.269 128.893 293.102C128.013 292.687 127.265 291.997 126.744 291.119C126.224 290.241 125.953 289.215 125.968 288.169C125.775 287.059 125.775 285.92 125.968 284.81L118.975 279.692L113.609 273.185C114.927 279.634 115.068 286.303 114.022 292.811Z" fill="#FFB573"/>
<path d="M136.371 297.335C136.371 297.335 133.737 289.399 129.488 287.627C125.239 285.855 112.492 286.82 112.492 286.82C111.872 289.668 111.061 292.462 110.064 295.179L136.371 297.335Z" fill="#023F8A"/>
<path d="M110.279 264.509C110.368 261.386 111.592 258.428 113.682 256.288C115.771 254.148 118.556 252.999 121.423 253.095C129.642 253.413 134.45 264.919 135.19 272.762C136.003 281.477 128.137 288.764 120.622 284.797C115.608 282.152 114.212 277.417 111.189 269.561C110.551 267.97 110.24 266.245 110.279 264.509Z" fill="#FFB573"/>
<path opacity="0.2" d="M111.606 290.259C111.145 291.925 110.635 293.565 110.052 295.179L134.332 297.176C133.737 295.604 132.984 294.109 132.086 292.719C126.259 290.14 115.976 290.127 111.606 290.259Z" fill="black"/>
<path d="M191.821 440.209L199.239 436.718L204.945 456.172L197.527 459.677L191.821 440.209Z" fill="#FFB573"/>
<path opacity="0.2" d="M191.821 440.209L199.239 436.718L202.092 446.438L194.589 449.652L191.821 440.209Z" fill="black"/>
<path d="M205.771 452.76C207.992 454.784 212.52 456.252 215.993 456.463C218.663 456.622 218.894 459.955 215.543 460.576C212.193 461.198 206.353 460.894 203.901 461.013C199.919 461.171 198.572 461.886 195.403 461.833C195.026 461.812 194.672 461.632 194.416 461.33C194.159 461.029 194.021 460.63 194.031 460.219L194.699 452.429C194.711 452.263 194.783 452.109 194.899 452C195.015 451.891 195.165 451.837 195.318 451.848L204.375 452.165C204.889 452.184 205.381 452.394 205.771 452.76Z" fill="#023F8A"/>
<path d="M124.072 359.904C124.072 359.904 117.844 367.945 122.858 380.681C128.527 395.11 158.61 388.775 175.06 393.378C177.403 418.863 191.061 444.957 191.061 444.957L202.472 440.09C202.472 440.09 197.531 419.789 193.816 383.829C191.995 366.133 150.78 364.202 150.78 364.202L124.072 359.904Z" fill="#023F8A"/>
<path d="M188.778 442.709L203.322 437.18L204.196 442.973L190.951 448.211L188.778 442.709Z" fill="#023F8A"/>
<path d="M156.706 448.554L164.718 448.144L163.407 468.723L155.407 469.146L156.706 448.554Z" fill="#FFB573"/>
<path d="M165.589 466.567C167.81 468.578 171.55 471.381 174.985 471.924C177.195 472.268 178.858 475.891 174.718 475.891C170.578 475.891 166.22 475.468 163.707 475.376C159.725 475.243 158.402 475.627 155.209 475.627C154.831 475.61 154.475 475.43 154.218 475.128C153.961 474.826 153.824 474.425 153.837 474.013L154.493 466.224C154.508 466.059 154.581 465.907 154.696 465.798C154.811 465.69 154.96 465.634 155.112 465.642L164.168 465.946C164.694 465.967 165.196 466.186 165.589 466.567Z" fill="#023F8A"/>
<path opacity="0.2" d="M155.99 459.915L163.954 459.928L164.718 448.144L156.706 448.568L155.99 459.915Z" fill="black"/>
<path d="M104.063 361.306C104.063 361.306 97.4953 375.854 103.881 385.112C109.66 393.563 139.16 394.118 154.177 394.118C152.684 414.049 154.335 454.956 154.335 454.956L166.341 454.77C166.341 454.77 174.839 415.411 176.551 387.876C177.522 372.574 127.53 362.43 127.53 362.43L104.063 361.306Z" fill="#023F8A"/>
<path d="M152.671 452.284L169.169 451.755L168.453 457.124L153.302 457.363L152.671 452.284Z" fill="#023F8A"/>
<path d="M103.822 363.382L145.875 364.308L147.295 304.013C147.031 300.725 145.648 297.663 143.418 295.428C141.187 293.194 138.27 291.949 135.24 291.939H110.656C109.524 291.93 108.401 292.167 107.355 292.638C106.308 293.108 105.358 293.802 104.56 294.678C103.763 295.554 103.134 296.595 102.711 297.739C102.289 298.883 102.08 300.108 102.098 301.342L103.822 363.382Z" fill="#023F8A"/>
<path opacity="0.6" d="M103.822 363.382L145.875 364.308L147.295 304.013C147.031 300.725 145.648 297.663 143.418 295.428C141.187 293.194 138.27 291.949 135.24 291.939H110.656C109.524 291.93 108.401 292.167 107.355 292.638C106.308 293.108 105.358 293.802 104.56 294.678C103.763 295.554 103.134 296.595 102.711 297.739C102.289 298.883 102.08 300.108 102.098 301.342L103.822 363.382Z" fill="white"/>
<path d="M146.678 302.612L147.468 305.997C147.747 307.161 148.038 308.325 148.354 309.489C148.985 311.803 149.568 314.118 150.333 316.379C151.097 318.641 151.777 320.876 152.603 322.992C153.395 325.114 154.299 327.185 155.31 329.195C155.78 330.162 156.294 331.102 156.852 332.012C156.994 332.169 157.168 332.286 157.36 332.355C157.552 332.424 157.757 332.443 157.957 332.408C158.872 332.346 159.781 332.204 160.676 331.985C164.909 330.817 169.059 329.319 173.095 327.502L176.215 332.885C174.342 334.638 172.358 336.247 170.279 337.699C168.143 339.221 165.883 340.527 163.529 341.6C162.22 342.207 160.863 342.681 159.474 343.015C157.693 343.465 155.848 343.519 154.047 343.174C152.731 342.903 151.487 342.316 150.405 341.455C149.81 340.984 149.275 340.428 148.815 339.801L148.172 338.942C147.362 337.778 146.585 336.601 145.841 335.411C143.157 330.759 140.931 325.812 139.2 320.651C138.35 318.138 137.561 315.612 136.894 313.046C136.554 311.724 136.238 310.494 135.935 309.198C135.631 307.902 135.364 306.659 135.097 305.23L146.678 302.612Z" fill="#FFB573"/>
<path d="M174.816 333.453L182.95 329.181L178.458 322.132C178.458 322.132 172.388 324.235 172.06 329.962L174.816 333.453Z" fill="#FFB573"/>
<path d="M184.869 325.743L182.199 319.157L178.399 322.132L182.915 329.181L184.869 325.743Z" fill="#FFB573"/>
<path d="M139.012 323.071L151.553 318.218C151.553 318.218 153.337 316.353 150.096 304.794C146.32 291.317 139.17 289.981 133.573 296.528C127.977 303.074 135.091 312.121 139.012 323.071Z" fill="#023F8A"/>
<path opacity="0.5" d="M139.012 323.071L151.553 318.218C151.553 318.218 153.337 316.353 150.096 304.794C146.32 291.317 139.17 289.981 133.573 296.528C127.977 303.074 135.091 312.121 139.012 323.071Z" fill="white"/>
<path d="M137.679 321.881L152.32 316.273L152.636 319.368L139.173 324.539L137.679 321.881Z" fill="#023F8A"/>
<path d="M115.11 280.446C117.049 280.124 119.03 280.291 120.901 280.935C121.243 281.062 121.616 281.052 121.952 280.907C122.288 280.761 122.565 280.49 122.734 280.141C123.814 277.906 125.963 273.383 126.788 271.347C126.788 271.347 130.588 269.323 128.694 263.729C126.801 258.134 126.788 256.362 126.788 256.362C126.788 256.362 132.688 250.741 127.092 247.435C121.495 244.129 124.057 250.186 117.89 251.508C111.723 252.831 104.73 259.444 107.267 267.498C109.137 273.436 112.536 277.787 113.556 279.652C113.711 279.94 113.943 280.17 114.22 280.311C114.497 280.453 114.808 280.5 115.11 280.446Z" fill="#263238"/>
<path d="M124.169 265.355C126.232 265.012 128.454 267.286 129.182 269.323C129.996 271.624 128.94 274.243 126.754 273.608C125.076 273.086 123.63 271.915 122.687 270.315C121.546 268.278 122.105 265.686 124.169 265.355Z" fill="#FFB573"/>
<path d="M121.171 447.933V398.086H113.887V448.052L95.337 453.342C93.7844 453.791 92.4116 454.787 91.4324 456.174C90.4531 457.562 89.9223 459.263 89.9226 461.013V462.639C89.9226 463.429 90.2104 464.186 90.7226 464.744C91.2349 465.302 91.9297 465.615 92.6541 465.615C93.3785 465.615 94.0733 465.302 94.5856 464.744C95.0978 464.186 95.3856 463.429 95.3856 462.639C95.3821 461.712 95.6617 460.81 96.1804 460.075C96.6991 459.34 97.4273 458.814 98.2506 458.579L113.887 454.083V462.639C113.887 463.429 114.175 464.186 114.687 464.744C115.199 465.302 115.894 465.615 116.618 465.615H118.427C119.152 465.615 119.847 465.302 120.359 464.744C120.871 464.186 121.159 463.429 121.159 462.639V454.03L136.722 458.725C137.564 458.963 138.308 459.504 138.832 460.26C139.357 461.016 139.631 461.943 139.612 462.891C139.605 463.679 139.885 464.438 140.389 465.003C140.894 465.568 141.583 465.892 142.307 465.906C142.666 465.911 143.024 465.839 143.358 465.694C143.692 465.548 143.996 465.332 144.253 465.058C144.51 464.784 144.715 464.457 144.856 464.097C144.997 463.736 145.071 463.349 145.075 462.957V461.33C145.093 459.579 144.578 457.871 143.612 456.472C142.646 455.072 141.282 454.06 139.733 453.593L121.171 447.933Z" fill="#263238"/>
<path d="M88.1497 471.157C88.1473 470.201 88.4051 469.267 88.8905 468.471C89.376 467.676 90.0672 467.055 90.8766 466.687C91.6861 466.32 92.5774 466.223 93.4378 466.407C94.2981 466.592 95.0888 467.051 95.7097 467.725C96.3306 468.4 96.7539 469.26 96.9258 470.197C97.0978 471.134 97.0107 472.105 96.6757 472.988C96.3407 473.871 95.7728 474.625 95.0438 475.156C94.3149 475.687 93.4577 475.971 92.5808 475.971C91.4077 475.971 90.2824 475.464 89.4518 474.562C88.6211 473.659 88.1529 472.435 88.1497 471.157Z" fill="#023F8A"/>
<path d="M137.971 471.157C137.969 470.201 138.226 469.267 138.712 468.471C139.197 467.676 139.888 467.055 140.698 466.687C141.507 466.32 142.399 466.223 143.259 466.407C144.119 466.592 144.91 467.051 145.531 467.725C146.152 468.4 146.575 469.26 146.747 470.197C146.919 471.134 146.832 472.105 146.497 472.988C146.162 473.871 145.594 474.625 144.865 475.156C144.136 475.687 143.279 475.971 142.402 475.971C141.229 475.971 140.104 475.464 139.273 474.562C138.442 473.659 137.974 472.435 137.971 471.157Z" fill="#023F8A"/>
<path d="M113.061 471.157C113.058 470.201 113.316 469.267 113.801 468.471C114.287 467.676 114.978 467.055 115.788 466.687C116.597 466.32 117.488 466.223 118.349 466.407C119.209 466.592 120 467.051 120.621 467.725C121.242 468.4 121.665 469.26 121.837 470.197C122.009 471.134 121.922 472.105 121.587 472.988C121.252 473.871 120.684 474.625 119.955 475.156C119.226 475.687 118.369 475.971 117.492 475.971C116.319 475.971 115.193 475.464 114.363 474.562C113.532 473.659 113.064 472.435 113.061 471.157Z" fill="#023F8A"/>
<path opacity="0.6" d="M121.172 398.126H113.901V409.381H121.172V398.126Z" fill="black"/>
<path opacity="0.6" d="M108.471 455.723L113.06 454.4V448.33L108.471 449.652V455.723Z" fill="black"/>
<path opacity="0.6" d="M126.514 449.546L121.913 448.158V454.255L126.514 455.643V449.546Z" fill="black"/>
<path d="M123.463 394.78H167.64C168.986 394.78 170.277 395.362 171.229 396.399C172.18 397.436 172.715 398.842 172.715 400.308H123.463V394.78Z" fill="#023F8A"/>
<path opacity="0.5" d="M123.463 394.78H167.64C168.986 394.78 170.277 395.362 171.229 396.399C172.18 397.436 172.715 398.842 172.715 400.308H123.463V394.78Z" fill="black"/>
<path d="M92.1039 324.024C76.5768 324.024 65.5173 336.641 66.3307 353.437L68.1031 390.151C68.2368 392.879 69.326 395.448 71.1464 397.328C72.9668 399.208 75.3797 400.256 77.888 400.255H140.288L127.395 353.437C122.77 336.694 107.631 324.024 92.1039 324.024Z" fill="#023F8A"/>
<path opacity="0.1" d="M92.1039 324.024C76.5768 324.024 65.5173 336.641 66.3307 353.437L68.1031 390.151C68.2368 392.879 69.326 395.448 71.1464 397.328C72.9668 399.208 75.3797 400.256 77.888 400.255H140.288L127.395 353.437C122.77 336.694 107.631 324.024 92.1039 324.024Z" fill="black"/>
<path opacity="0.3" d="M88.9594 324.262C75.1077 325.849 65.5778 337.844 66.3304 353.49L68.1029 390.151C68.2365 392.879 69.3258 395.448 71.1462 397.328C72.9666 399.208 75.3795 400.256 77.8877 400.255H133.999L121.106 353.437C116.796 337.831 103.345 325.822 88.9594 324.262Z" fill="black"/>
<path d="M147.306 398.721C146.854 398.225 146.6 397.555 146.6 396.856C146.6 396.157 146.854 395.487 147.306 394.991L160.527 380.589C160.719 380.38 160.85 380.113 160.903 379.823C160.957 379.533 160.929 379.232 160.825 378.958C160.721 378.685 160.545 378.452 160.319 378.287C160.093 378.123 159.827 378.036 159.556 378.036H131.221C130.577 378.036 129.959 377.758 129.504 377.262C129.049 376.766 128.793 376.093 128.793 375.391C128.793 374.69 129.049 374.017 129.504 373.521C129.959 373.025 130.577 372.746 131.221 372.746H159.301C160.463 372.723 161.61 373.04 162.62 373.666C163.63 374.293 164.467 375.204 165.043 376.304C165.683 377.59 165.923 379.066 165.729 380.514C165.534 381.961 164.914 383.3 163.963 384.332L150.742 398.721C150.517 398.967 150.249 399.162 149.954 399.295C149.659 399.428 149.343 399.497 149.024 399.497C148.705 399.497 148.389 399.428 148.095 399.295C147.8 399.162 147.532 398.967 147.306 398.721Z" fill="#263238"/>
<path opacity="0.2" d="M165.104 376.304C164.528 375.204 163.691 374.293 162.681 373.666C161.67 373.04 160.524 372.723 159.361 372.746H131.221C130.577 372.746 129.959 373.025 129.504 373.521C129.049 374.017 128.793 374.69 128.793 375.391C128.793 376.093 129.049 376.766 129.504 377.262C129.959 377.758 130.577 378.036 131.221 378.036H159.556C159.777 378.03 159.995 378.089 160.187 378.208H165.662C165.559 377.548 165.371 376.907 165.104 376.304Z" fill="white"/>
<path d="M257.965 360.473H222.965C222.748 360.473 222.534 360.426 222.333 360.336C222.133 360.246 221.951 360.113 221.798 359.946C221.644 359.779 221.523 359.581 221.44 359.363C221.357 359.144 221.314 358.91 221.314 358.674V357.246H257.965V360.473Z" fill="#263238"/>
<path opacity="0.2" d="M257.965 360.473H222.965C222.748 360.473 222.534 360.426 222.333 360.336C222.133 360.246 221.951 360.113 221.798 359.946C221.644 359.779 221.523 359.581 221.44 359.363C221.357 359.144 221.314 358.91 221.314 358.674V357.246H257.965V360.473Z" fill="white"/>
<path d="M279.802 360.473H251.224C250.786 360.473 250.366 360.283 250.057 359.946C249.747 359.609 249.573 359.151 249.573 358.674V357.246H279.802V360.473Z" fill="#263238"/>
<path opacity="0.5" d="M279.802 360.473H251.224C250.786 360.473 250.366 360.283 250.057 359.946C249.747 359.609 249.573 359.151 249.573 358.674V357.246H279.802V360.473Z" fill="white"/>
<path d="M273.114 359.428H276.076V358.277H273.114V359.428Z" fill="#263238"/>
<path d="M268.502 359.428H271.464V358.277H268.502V359.428Z" fill="#263238"/>
<path d="M277.803 357.246H279.769L281.809 328.084H279.83L277.803 357.246Z" fill="#263238"/>
<path opacity="0.3" d="M277.803 357.246H279.769L281.809 328.084H279.83L277.803 357.246Z" fill="white"/>
<path d="M278.517 357.246H243.906L245.945 328.084H280.556L278.517 357.246Z" fill="#023F8A"/>
<path opacity="0.4" d="M278.517 357.246H243.906L245.945 328.084H280.556L278.517 357.246Z" fill="white"/>
<path d="M219.904 296.819C218.836 300.958 218.569 305.402 224.032 307.016C224.032 307.016 229.131 314.845 223.012 320.096C219.137 314.537 214.247 309.913 208.651 306.513C212.208 303.048 211.516 293.169 210.69 287.759L219.904 296.819Z" fill="#CE7A63"/>
<path d="M226.686 275.314C227.099 275.195 227.609 275.618 227.816 276.306C228.022 276.994 227.816 277.721 227.427 277.827C227.039 277.933 226.504 277.536 226.298 276.835C226.092 276.134 226.262 275.42 226.686 275.314Z" fill="#2E353A"/>
<path d="M227.9 274.388L226.504 275.407C227.5 275.975 227.9 274.388 227.9 274.388Z" fill="#2E353A"/>
<path d="M228.232 282.8C228.658 282.767 229.071 282.631 229.443 282.402C229.815 282.174 230.135 281.858 230.381 281.477C229.017 280.456 227.791 279.232 226.739 277.84L228.232 282.8Z" fill="#BA4D3C"/>
<path d="M225.171 270.751C224.762 271.057 224.427 271.466 224.192 271.942C223.958 272.418 223.831 272.949 223.824 273.489C223.825 273.545 223.817 273.6 223.799 273.652C223.781 273.704 223.753 273.752 223.719 273.792C223.684 273.833 223.642 273.865 223.595 273.888C223.549 273.911 223.498 273.924 223.447 273.926C223.397 273.927 223.347 273.918 223.3 273.898C223.252 273.878 223.21 273.848 223.173 273.81C223.137 273.772 223.108 273.726 223.089 273.676C223.069 273.625 223.059 273.57 223.059 273.516C223.06 272.833 223.212 272.161 223.501 271.555C223.79 270.95 224.209 270.429 224.722 270.037C224.807 269.973 224.91 269.947 225.012 269.964C225.114 269.982 225.206 270.041 225.268 270.13C225.304 270.194 225.322 270.267 225.322 270.341C225.322 270.416 225.304 270.489 225.268 270.553C225.256 270.629 225.222 270.698 225.171 270.751Z" fill="#2E353A"/>
<path d="M202.897 275.751C203.153 272.522 204.576 269.536 206.852 267.451C209.129 265.365 212.073 264.349 215.037 264.628C223.729 265.329 228.548 277.642 229.131 285.908C229.787 295.099 221.009 300.958 213.094 296.488C207.789 293.499 206.769 289.875 203.71 281.504C203.024 279.683 202.745 277.711 202.897 275.751Z" fill="#CE7A63"/>
<path opacity="0.21" d="M198.656 286.622C187.268 270.95 201.254 266.44 201.254 266.44C205.636 259.827 212.86 258.505 219.464 261.242C226.068 263.98 224.126 268.847 221.71 269.323C226.226 275.83 223.64 279.07 222.147 279.533C224.514 295.906 210.019 302.294 198.656 286.622Z" fill="#263238"/>
<path d="M208.674 355.831C206.438 355.518 204.226 355.023 202.058 354.349C201.736 354.232 201.419 354.095 201.111 353.939L201.014 352.207C200.759 347.023 200.662 341.732 200.553 336.429L200.31 320.558H191.909C191.909 325.968 192.006 331.324 192.225 336.707C192.443 342.089 192.734 347.472 193.293 352.921L193.584 354.984L193.73 356.016C193.757 356.336 193.801 356.654 193.863 356.968C193.955 357.271 194.064 357.567 194.191 357.854C194.419 358.334 194.705 358.779 195.041 359.177C195.506 359.703 196.043 360.149 196.631 360.499C197.054 360.76 197.492 360.99 197.943 361.187C198.678 361.492 199.433 361.739 200.201 361.928C202.806 362.506 205.457 362.816 208.116 362.853C213.133 362.979 218.151 362.714 223.133 362.06L223.048 357.576C218.228 357.087 213.36 356.611 208.674 355.831Z" fill="#CE7A63"/>
<path d="M207.5 317.596C207.5 323.137 204.441 333.467 204.441 333.467L191.815 325.055C191.245 317.953 192.592 308.827 198.844 306.606C203.106 305.111 207.452 311.697 207.5 317.596Z" fill="#263238"/>
<path opacity="0.6" d="M198.431 313.615L195.53 316.736L194.971 327.171L204.44 333.506C204.44 333.506 207.5 323.137 207.5 317.636C207.47 316.197 207.228 314.772 206.783 313.417L202.425 311.988L198.431 313.615Z" fill="black"/>
<path d="M234.63 360.036C234.714 359.824 234.759 359.595 234.762 359.364C234.765 359.132 234.726 358.902 234.647 358.687C234.568 358.472 234.451 358.276 234.302 358.11C234.153 357.945 233.976 357.813 233.781 357.722L230.199 356.069C229.429 355.724 228.578 355.659 227.771 355.884L219.977 358.172L219.018 361.042C220.232 364.335 225.392 363.687 225.392 363.687L229.095 364.93C229.563 365.088 230.064 365.088 230.532 364.929C231 364.771 231.413 364.463 231.717 364.044L234.424 360.407C234.509 360.295 234.579 360.17 234.63 360.036Z" fill="#CE7A63"/>
<path d="M228.948 306.473C227.334 306.169 225.634 305.891 223.983 305.68C218.902 305.116 213.79 304.948 208.687 305.177C206.174 305.177 203.709 305.429 201.548 305.68H201.378C199.5 305.953 197.798 307.027 196.646 308.666C195.495 310.305 194.987 312.375 195.236 314.422C198.295 338.228 199.63 348.319 198.744 361.901L232.517 363.012C236.451 340.846 238.053 327.634 238.587 319.858C238.8 316.719 237.929 313.608 236.146 311.132C234.364 308.657 231.797 306.995 228.948 306.473Z" fill="#263238"/>
<path d="M268.145 442.894L276.12 442.074L281.499 463.473L273.523 464.293L268.145 442.894Z" fill="#CE7A63"/>
<path d="M210.191 361.888C197.359 380.404 198.379 396.182 211.636 396.182C223.448 396.182 238.174 396.949 254.126 395.838C257.634 423.862 271.037 456.516 271.037 456.516L279.887 455.617C279.887 455.617 271.814 414.618 271.195 385.985C270.806 368.673 225.937 370.114 225.937 370.114C225.937 370.114 218.07 361.941 210.191 361.888Z" fill="#263238"/>
<path opacity="0.3" d="M210.191 361.888C197.359 380.404 198.379 396.182 211.636 396.182C223.448 396.182 238.174 396.949 254.126 395.838C257.634 423.862 271.037 456.516 271.037 456.516L279.887 455.617C279.887 455.617 271.814 414.618 271.195 385.985C270.806 368.673 225.937 370.114 225.937 370.114C225.937 370.114 218.07 361.941 210.191 361.888Z" fill="white"/>
<path opacity="0.2" d="M272.251 402.741C271.729 396.962 271.353 391.262 271.243 385.985C270.855 368.673 225.985 370.114 225.985 370.114C224.994 369.134 223.952 368.216 222.865 367.363C221.129 367.601 220.134 367.76 220.134 367.76C220.134 367.76 213.36 367.641 206.61 367.588C197.711 383.459 199.775 396.155 211.636 396.155C218.653 396.155 226.726 396.42 235.467 396.406C247.34 392.875 259.625 388.471 265.198 386.54C267.043 392.185 269.406 397.613 272.251 402.741Z" fill="black"/>
<path d="M198.849 359.441L233.06 360.552C233.388 360.552 233.618 360.764 233.618 360.989L233.23 364.321C233.23 364.52 232.939 364.665 232.635 364.665L197.878 363.554C197.49 363.554 197.223 363.277 197.344 363.025L198.303 359.759C198.356 359.654 198.436 359.569 198.533 359.512C198.63 359.456 198.74 359.431 198.849 359.441Z" fill="#263238"/>
<path d="M255.304 348.305C251.662 348.821 247.875 349.324 244.245 349.628C242.502 349.811 240.751 349.882 239 349.84C238.524 349.826 238.049 349.773 237.58 349.681C237.268 348.205 237.053 346.707 236.937 345.197C236.803 343.333 236.767 341.455 236.803 339.577C236.839 337.699 236.997 335.715 237.179 333.81C237.264 332.845 237.374 331.84 237.507 330.927C237.641 330.015 237.774 328.97 237.908 328.19L229.713 326.285C229.471 327.502 229.301 328.52 229.155 329.618C229.009 330.716 228.9 331.76 228.791 332.898C228.588 335.095 228.495 337.302 228.511 339.511C228.478 344.138 229.159 348.738 230.527 353.12L230.66 353.543L230.769 353.834L230.915 354.204C231.025 354.432 231.146 354.653 231.279 354.865C231.727 355.565 232.311 356.148 232.991 356.571C233.791 357.059 234.668 357.377 235.577 357.51C236.783 357.696 238.006 357.727 239.219 357.603C241.263 357.412 243.292 357.058 245.289 356.545C249.088 355.574 252.817 354.301 256.446 352.736L255.304 348.305Z" fill="#CE7A63"/>
<path d="M224.494 316.459C221.824 320.532 227.165 331.641 227.165 331.641L237.727 330.914C237.727 330.914 240.483 316.631 235.627 310.441C233.005 307.135 227.311 312.213 224.494 316.459Z" fill="#263238"/>
<path d="M263.975 341.058C264.202 341.084 264.422 341.159 264.622 341.279C264.822 341.398 264.998 341.56 265.14 341.755C265.283 341.949 265.388 342.172 265.451 342.411C265.513 342.65 265.531 342.901 265.504 343.148L265.092 348.147C265.061 348.522 264.929 348.878 264.713 349.172C264.497 349.466 264.207 349.685 263.878 349.8L259.701 351.122C259.701 351.122 251.993 356.413 249.504 354.125L252.381 349.787L257.638 343.253C258.23 342.509 259.033 342.002 259.92 341.812L263.441 341.045C263.618 341.019 263.798 341.023 263.975 341.058Z" fill="#CE7A63"/>
<path d="M282.167 462.891C284.061 464.994 287.29 467.969 290.447 468.816C292.462 469.358 293.7 472.916 289.864 472.492C286.028 472.069 281.937 471.17 279.679 470.905C276.037 470.376 274.725 470.601 271.788 470.284C271.439 470.228 271.124 470.024 270.913 469.717C270.701 469.41 270.61 469.024 270.659 468.644L271.933 461.568C271.96 461.417 272.039 461.283 272.155 461.194C272.27 461.105 272.413 461.069 272.552 461.092L280.941 462.296C281.399 462.341 281.83 462.55 282.167 462.891Z" fill="#263238"/>
<path d="M221.655 269.336C221.655 269.336 225.807 274.468 223.051 280.009C223.051 280.009 220.514 283.474 221.655 290.748C222.796 298.022 227.907 303.881 216.423 303.815C205.618 303.749 192.058 306.129 193.575 294.637C193.575 294.637 188.647 289.598 194.195 284.215C194.195 284.215 190.006 277.893 195.178 272.894C195.178 272.894 192.507 262.565 201.758 263.081C201.758 263.081 203.822 252.804 213.679 258.571C213.679 258.571 217.855 251.323 224.18 258.571C224.18 258.571 234.475 259.483 227.215 266.003C227.215 266.03 227.567 271.32 221.655 269.336Z" fill="#263238"/>
<path d="M229.447 279.996C229.201 279.994 228.964 279.896 228.78 279.718C227.857 278.872 227.481 276.134 227.371 274.997L222.515 277.496L222.26 276.888L228.998 273.463C229.163 273.368 229.346 273.318 229.532 273.318C229.719 273.318 229.902 273.368 230.067 273.463C230.23 273.556 230.373 273.69 230.482 273.852C230.591 274.015 230.665 274.203 230.698 274.402C230.965 276.161 231.123 278.449 230.419 279.454C230.317 279.599 230.189 279.72 230.043 279.808C229.897 279.897 229.735 279.952 229.569 279.97L229.447 279.996ZM227.954 274.706C228.063 275.923 228.44 278.541 229.168 279.216C229.252 279.296 229.36 279.339 229.472 279.335C229.558 279.328 229.641 279.301 229.717 279.255C229.792 279.209 229.858 279.146 229.909 279.07C230.346 278.449 230.406 276.795 230.054 274.534C230.043 274.435 230.01 274.341 229.957 274.26C229.904 274.18 229.833 274.114 229.751 274.071C229.668 274.026 229.577 274.002 229.484 274.002C229.391 274.002 229.3 274.026 229.217 274.071L227.954 274.706Z" fill="#023F8A"/>
<path d="M218.517 280.022C218.471 279.611 218.501 279.193 218.603 278.794C218.706 278.394 218.881 278.021 219.117 277.695C219.352 277.37 219.645 277.098 219.977 276.896C220.31 276.694 220.676 276.565 221.054 276.518C223.263 276.266 224.963 279.163 225.449 281.16C225.983 283.435 224.817 285.524 222.656 284.784C221.025 284.198 219.672 282.934 218.893 281.266C218.685 280.886 218.557 280.462 218.517 280.022Z" fill="#CE7A63"/>
<path d="M292.806 423.664L299.568 416.681L308.612 431.652L303.198 436.757L292.806 423.664Z" fill="#CE7A63"/>
<path d="M201.937 362.192C201.136 362.183 200.356 362.468 199.722 363.001C199.088 363.533 198.637 364.283 198.44 365.128C193.876 384.517 199.023 396.235 211.637 396.235C223.449 396.235 255.681 384.742 265.805 381.171C274.303 407.86 298.765 431.758 298.765 431.758L305.188 425.344C305.188 425.344 290.935 395.441 281.077 368.845C275.42 353.569 220.742 362.391 220.742 362.391C220.742 362.391 209.864 362.192 201.937 362.192Z" fill="#263238"/>
<path opacity="0.3" d="M201.937 362.192C201.136 362.183 200.356 362.468 199.722 363.001C199.088 363.533 198.637 364.283 198.44 365.128C193.876 384.517 199.023 396.235 211.637 396.235C223.449 396.235 255.681 384.742 265.805 381.171C274.303 407.86 298.765 431.758 298.765 431.758L305.188 425.344C305.188 425.344 290.935 395.441 281.077 368.845C275.42 353.569 220.742 362.391 220.742 362.391C220.742 362.391 209.864 362.192 201.937 362.192Z" fill="white"/>
<path d="M308.706 428.333C311.401 428.108 315.298 425.873 317.75 423.545C319.62 421.746 321.781 423.81 319.911 426.6C318.042 429.391 313.975 433.358 312.409 435.17C309.847 438.12 309.374 439.548 307.249 441.783C306.985 442.037 306.64 442.168 306.289 442.148C305.937 442.128 305.606 441.959 305.368 441.677L301.143 436.003C301.095 435.945 301.059 435.877 301.037 435.803C301.014 435.729 301.006 435.651 301.011 435.573C301.017 435.495 301.037 435.419 301.07 435.35C301.103 435.281 301.148 435.22 301.203 435.17L307.443 428.941C307.79 428.59 308.234 428.376 308.706 428.333Z" fill="#263238"/>
<path d="M211.466 447.933V398.086H204.182V448.052L185.644 453.342C184.089 453.789 182.713 454.783 181.732 456.171C180.75 457.559 180.218 459.261 180.217 461.013V462.639C180.217 463.429 180.505 464.186 181.017 464.744C181.53 465.302 182.224 465.615 182.949 465.615C183.673 465.615 184.368 465.302 184.88 464.744C185.392 464.186 185.68 463.429 185.68 462.639C185.677 461.712 185.956 460.81 186.475 460.075C186.994 459.34 187.722 458.814 188.545 458.579L204.182 454.083V462.639C204.182 463.429 204.469 464.186 204.982 464.744C205.494 465.302 206.189 465.615 206.913 465.615H208.722C209.446 465.615 210.141 465.302 210.653 464.744C211.166 464.186 211.453 463.429 211.453 462.639V454.03L227.017 458.725C227.836 458.973 228.557 459.51 229.067 460.252C229.576 460.994 229.846 461.898 229.833 462.825C229.827 463.615 230.108 464.376 230.616 464.941C231.123 465.506 231.815 465.83 232.541 465.84C232.899 465.844 233.255 465.77 233.588 465.624C233.92 465.477 234.223 465.261 234.479 464.987C234.735 464.713 234.939 464.387 235.079 464.028C235.219 463.668 235.293 463.282 235.296 462.891V461.264C235.314 459.513 234.8 457.805 233.834 456.405C232.868 455.006 231.504 453.994 229.955 453.527L211.466 447.933Z" fill="#263238"/>
<path d="M178.456 471.157C178.454 470.201 178.712 469.266 179.198 468.47C179.684 467.674 180.376 467.053 181.186 466.686C181.996 466.319 182.888 466.222 183.749 466.408C184.61 466.594 185.4 467.054 186.021 467.73C186.641 468.406 187.063 469.267 187.234 470.205C187.405 471.143 187.316 472.114 186.979 472.997C186.642 473.88 186.072 474.633 185.342 475.163C184.611 475.692 183.753 475.973 182.875 475.971C181.704 475.967 180.582 475.459 179.754 474.557C178.926 473.655 178.46 472.432 178.456 471.157Z" fill="#023F8A"/>
<path d="M228.231 471.157C228.229 470.201 228.487 469.267 228.972 468.471C229.458 467.676 230.149 467.055 230.958 466.687C231.768 466.32 232.659 466.223 233.519 466.407C234.38 466.592 235.17 467.051 235.791 467.725C236.412 468.4 236.835 469.26 237.007 470.197C237.179 471.134 237.092 472.105 236.757 472.988C236.422 473.871 235.854 474.625 235.125 475.156C234.396 475.687 233.539 475.971 232.662 475.971C231.489 475.971 230.364 475.464 229.533 474.562C228.703 473.659 228.234 472.435 228.231 471.157Z" fill="#023F8A"/>
<path d="M203.355 471.157C203.353 470.201 203.611 469.267 204.096 468.471C204.582 467.676 205.273 467.055 206.082 466.687C206.892 466.32 207.783 466.223 208.643 466.407C209.504 466.592 210.294 467.051 210.915 467.725C211.536 468.4 211.959 469.26 212.131 470.197C212.303 471.134 212.216 472.105 211.881 472.988C211.546 473.871 210.978 474.625 210.249 475.156C209.52 475.687 208.663 475.971 207.786 475.971C206.614 475.967 205.491 475.459 204.661 474.558C203.831 473.656 203.362 472.434 203.355 471.157Z" fill="#023F8A"/>
<path opacity="0.6" d="M211.467 398.126H204.195V409.381H211.467V398.126Z" fill="black"/>
<path opacity="0.6" d="M198.766 455.723L203.355 454.4V448.33L198.766 449.652V455.723Z" fill="black"/>
<path opacity="0.6" d="M216.809 449.546L212.208 448.158V454.255L216.809 455.643V449.546Z" fill="black"/>
<path d="M213.758 394.78H257.947C259.291 394.783 260.579 395.367 261.528 396.404C262.477 397.44 263.01 398.844 263.01 400.308H213.758V394.78Z" fill="#023F8A"/>
<path opacity="0.5" d="M213.758 394.78H257.947C259.291 394.783 260.579 395.367 261.528 396.404C262.477 397.44 263.01 398.844 263.01 400.308H213.758V394.78Z" fill="black"/>
<path d="M182.406 324.024C166.879 324.024 155.82 336.641 156.633 353.437L158.417 390.151C158.548 392.867 159.626 395.426 161.431 397.305C163.237 399.183 165.633 400.239 168.13 400.255H230.529L217.636 353.437C213.072 336.694 197.945 324.024 182.406 324.024Z" fill="#023F8A"/>
<path opacity="0.1" d="M182.406 324.024C166.879 324.024 155.82 336.641 156.633 353.437L158.417 390.151C158.548 392.867 159.626 395.426 161.431 397.305C163.237 399.183 165.633 400.239 168.13 400.255H230.529L217.636 353.437C213.072 336.694 197.945 324.024 182.406 324.024Z" fill="black"/>
<path opacity="0.3" d="M179.274 324.262C165.41 325.849 155.88 337.844 156.633 353.49L158.417 390.151C158.547 392.867 159.625 395.426 161.431 397.305C163.236 399.183 165.633 400.238 168.129 400.255H224.24L211.348 353.437C207.099 337.831 193.66 325.822 179.274 324.262Z" fill="black"/>
<path d="M237.613 398.721C237.16 398.225 236.907 397.555 236.907 396.856C236.907 396.157 237.16 395.487 237.613 394.991L250.833 380.589C251.025 380.38 251.156 380.113 251.21 379.823C251.263 379.533 251.236 379.232 251.132 378.958C251.027 378.685 250.851 378.452 250.625 378.287C250.399 378.123 250.134 378.036 249.862 378.036H221.527C220.883 378.036 220.266 377.758 219.81 377.262C219.355 376.766 219.099 376.093 219.099 375.391C219.099 374.69 219.355 374.017 219.81 373.521C220.266 373.025 220.883 372.746 221.527 372.746H249.595C250.757 372.723 251.904 373.04 252.914 373.666C253.924 374.293 254.761 375.204 255.337 376.304C255.977 377.59 256.217 379.066 256.023 380.514C255.828 381.961 255.208 383.3 254.257 384.332L241.036 398.721C240.581 399.214 239.966 399.49 239.324 399.49C238.683 399.49 238.068 399.214 237.613 398.721Z" fill="#263238"/>
<path opacity="0.2" d="M255.337 376.304C254.761 375.204 253.925 374.293 252.914 373.666C251.904 373.04 250.757 372.723 249.595 372.746H221.527C220.883 372.746 220.266 373.025 219.81 373.521C219.355 374.017 219.099 374.69 219.099 375.391C219.099 376.093 219.355 376.766 219.81 377.262C220.266 377.758 220.883 378.036 221.527 378.036H249.862C250.079 378.032 250.292 378.092 250.481 378.208H255.956C255.839 377.543 255.631 376.901 255.337 376.304Z" fill="white"/>
</svg>
